<svg xmlns="http://www.w3.org/2000/svg" width="14.608" height="15.377" viewBox="0 0 14.608 15.377">
  <path id="git-compare-svgrepo-com" d="M5.2,2a2.683,2.683,0,0,0-.769,5.257v5.5a3.388,3.388,0,0,0,.9,2.253,2.931,2.931,0,0,0,2.165.824v1.538l3.075-2.307L7.5,12.764V14.3a1.441,1.441,0,0,1-1.53-1.538V7.257A2.683,2.683,0,0,0,5.2,2Zm0,3.844A1.153,1.153,0,1,1,6.354,4.691,1.155,1.155,0,0,1,5.2,5.844Zm10,6.276V6.611a3,3,0,0,0-3.083-3.073V2L9.038,4.307l3.075,2.307V5.075a1.455,1.455,0,0,1,1.545,1.538V12.12a2.691,2.691,0,1,0,1.538,0Zm-.769,3.719a1.153,1.153,0,1,1,1.153-1.153A1.155,1.155,0,0,1,14.427,15.839Z" transform="translate(-2.51 -2)" fill="#fafafa"/>
</svg>
