<svg xmlns="http://www.w3.org/2000/svg" width="138.61" height="139.036" viewBox="0 0 138.61 139.036">
  <g id="Group_9086" data-name="Group 9086" transform="translate(-904.668 -1020.486)">
    <g id="Group_8985" data-name="Group 8985" transform="translate(931.043 1020.486)">
      <g id="Icons" transform="translate(0)">
        <path id="Path_20432" data-name="Path 20432" d="M37.5,92.862A14.606,14.606,0,0,1,22.948,79.554,14.571,14.571,0,0,1,12.335,56.571,12.1,12.1,0,0,1,15.43,33.588a11.853,11.853,0,0,1-1.094-5.017,12.151,12.151,0,0,1,8.672-11.637,11.639,11.639,0,0,1-.335-2.757,12.083,12.083,0,0,1,3.681-8.719A12,12,0,0,1,35.163,2,12.461,12.461,0,0,1,46.992,14.592V85.243a7.269,7.269,0,0,1-5.14,6.97,14.625,14.625,0,0,1-4.35.649ZM34.846,4.6a9.525,9.525,0,0,0-8.981,12.848,1.3,1.3,0,0,1-1,1.712,9.568,9.568,0,0,0-7.937,9.414,9.151,9.151,0,0,0,1.7,5.374A1.3,1.3,0,0,1,17.576,36a9.687,9.687,0,0,0-9.769,9.581,9.557,9.557,0,0,0,7.009,9.143,1.3,1.3,0,0,1,.613,2.121,12.147,12.147,0,0,0-3.215,8.139A12.014,12.014,0,0,0,24.187,77.011a1.3,1.3,0,0,1,1.3,1.3A12.03,12.03,0,0,0,41.074,89.731,4.683,4.683,0,0,0,44.4,85.243V14.592A9.845,9.845,0,0,0,35.1,4.6Z" transform="translate(-5.213 -1.995)" fill="#24272d"/>
      </g>
      <g id="Icons-2" data-name="Icons" transform="translate(44.135)">
        <path id="Path_20432-2" data-name="Path 20432" d="M14.7,92.862A14.607,14.607,0,0,0,29.259,79.553,14.571,14.571,0,0,0,39.871,56.571a12.1,12.1,0,0,0-3.094-22.983,11.853,11.853,0,0,0,1.094-5.017A12.151,12.151,0,0,0,29.2,16.935a11.639,11.639,0,0,0,.335-2.757,12.083,12.083,0,0,0-3.681-8.719A12,12,0,0,0,17.043,2,12.461,12.461,0,0,0,5.214,14.592V85.243a7.269,7.269,0,0,0,5.14,6.97,14.624,14.624,0,0,0,4.35.649ZM17.36,4.6a9.525,9.525,0,0,1,8.981,12.848,1.3,1.3,0,0,0,1,1.712,9.568,9.568,0,0,1,7.937,9.414,9.151,9.151,0,0,1-1.7,5.374A1.3,1.3,0,0,0,34.63,36,9.687,9.687,0,0,1,44.4,45.581a9.557,9.557,0,0,1-7.009,9.143,1.3,1.3,0,0,0-.613,2.121,12.147,12.147,0,0,1,3.215,8.139A12.014,12.014,0,0,1,28.019,77.011a1.3,1.3,0,0,0-1.3,1.3A12.03,12.03,0,0,1,11.132,89.731,4.683,4.683,0,0,1,7.81,85.243V14.592a9.845,9.845,0,0,1,9.3-9.995Z" transform="translate(-5.213 -1.995)" fill="#24272d"/>
      </g>
      <circle id="Ellipse_1327" data-name="Ellipse 1327" cx="7.247" cy="7.247" r="7.247" transform="translate(22.445 5.07)" fill="#24272d"/>
      <ellipse id="Ellipse_1339" data-name="Ellipse 1339" cx="7.222" cy="7.222" rx="7.222" ry="7.222" transform="translate(49.002 5.103)" fill="#ef4864"/>
      <circle id="Ellipse_1328" data-name="Ellipse 1328" cx="8.807" cy="8.807" r="8.807" transform="translate(13.688 18.757)" fill="#d1e92a"/>
      <ellipse id="Ellipse_1337" data-name="Ellipse 1337" cx="8.827" cy="8.827" rx="8.827" ry="8.827" transform="translate(54.619 18.746)" fill="#00a7cf"/>
      <ellipse id="Ellipse_1329" data-name="Ellipse 1329" cx="8.001" cy="8.052" rx="8.001" ry="8.052" transform="translate(4.831 35.564)" fill="#ef4864"/>
      <ellipse id="Ellipse_1336" data-name="Ellipse 1336" cx="8.025" cy="8.025" rx="8.025" ry="8.025" transform="translate(65.051 35.597)" fill="#24272d"/>
      <circle id="Ellipse_1330" data-name="Ellipse 1330" cx="9.209" cy="9.209" r="9.209" transform="translate(8.857 54.083)" fill="#00a7cf"/>
      <ellipse id="Ellipse_1340" data-name="Ellipse 1340" cx="9.228" cy="9.228" rx="9.228" ry="9.228" transform="translate(58.631 54.054)" fill="#d1e92a"/>
      <circle id="Ellipse_1331" data-name="Ellipse 1331" cx="7.649" cy="7.649" r="7.649" transform="translate(23.25 70.892)" fill="#ef4864"/>
      <ellipse id="Ellipse_1344" data-name="Ellipse 1344" cx="7.623" cy="7.623" rx="7.623" ry="7.623" transform="translate(47.397 70.905)" fill="#24272d"/>
      <circle id="Ellipse_1332" data-name="Ellipse 1332" cx="8.454" cy="8.454" r="8.454" transform="translate(21.639 38.787)" fill="#24272d"/>
      <ellipse id="Ellipse_1338" data-name="Ellipse 1338" cx="8.426" cy="8.426" rx="8.426" ry="8.426" transform="translate(47.397 38.805)" fill="#ef4864"/>
      <ellipse id="Ellipse_1333" data-name="Ellipse 1333" cx="4.026" cy="3.976" rx="4.026" ry="3.976" transform="translate(30.496 30.03)" fill="#00a7cf"/>
      <ellipse id="Ellipse_1342" data-name="Ellipse 1342" cx="4.012" cy="4.012" rx="4.012" ry="4.012" transform="translate(47.397 29.979)" fill="#d1e92a"/>
      <ellipse id="Ellipse_1335" data-name="Ellipse 1335" cx="5.234" cy="5.183" rx="5.234" ry="5.183" transform="translate(28.081 58.916)" fill="#d1e92a"/>
      <ellipse id="Ellipse_1341" data-name="Ellipse 1341" cx="5.216" cy="5.216" rx="5.216" ry="5.216" transform="translate(47.397 58.867)" fill="#00a7cf"/>
      <circle id="Ellipse_1334" data-name="Ellipse 1334" cx="3.221" cy="3.221" r="3.221" transform="translate(31.302 19.562)" fill="#ef4864"/>
      <ellipse id="Ellipse_1343" data-name="Ellipse 1343" cx="3.21" cy="3.21" rx="3.21" ry="3.21" transform="translate(48.199 19.547)" fill="#24272d"/>
    </g>
    <g id="Group_8986" data-name="Group 8986" transform="translate(904.668 1130.982)">
      <path id="Path_20388" data-name="Path 20388" d="M5062.363,1274.476a6.622,6.622,0,0,0,1.441,4.655c2.3,2.673,5.731,3.022,8.457,4.811.677.443,1.268,1.245.779,2.055-.919,1.519-4.617.433-5.874-.153a9.822,9.822,0,0,1-2.268-1.474c-.5.449-3.173,3.2-4.025,4.065a14.565,14.565,0,0,0,9.069,3.64,11.089,11.089,0,0,0,7.586-2.513,6.543,6.543,0,0,0,1.062-8.413c-2.309-3.307-8.8-4.22-9.773-5.971-.529-.952.39-2.167,2.007-2.211a10.693,10.693,0,0,1,5.11,1.857c.522-.525,2.828-2.846,3.565-3.6a10.815,10.815,0,0,0-7.508-3.416C5067.689,1267.685,5062.891,1269.739,5062.363,1274.476Z" transform="translate(-5060.872 -1263.781)" fill="#24272d" fill-rule="evenodd"/>
      <path id="Path_20389" data-name="Path 20389" d="M5196.879,1292.107h6.25v-13.933a4.018,4.018,0,0,1,4.006-4.006h.633v-6.312h-1.486a9.431,9.431,0,0,0-9.4,9.4Z" transform="translate(-5124.026 -1263.805)" fill="#24272d" fill-rule="evenodd"/>
      <path id="Path_20390" data-name="Path 20390" d="M5278.539,1260.36h6.278v3.978h5.158v6.712h-5.158v7.285a4.036,4.036,0,0,0,4.025,4.025h.637v6.34h-1.494a9.473,9.473,0,0,1-9.446-9.446v-8.2h-3.016v-6.712h3.016Z" transform="translate(-5160.545 -1260.324)" fill="#24272d" fill-rule="evenodd"/>
      <path id="Path_20391" data-name="Path 20391" d="M5241.9,1292.069h6.1V1281.6c-.032-.511,0-1.031,0-1.559a12.26,12.26,0,1,0-6.1,10.6v1.419Zm-6.165-6.253a5.771,5.771,0,1,1,5.771-5.771A5.772,5.772,0,0,1,5235.73,1285.816Z" transform="translate(-5136.371 -1263.77)" fill="#24272d" fill-rule="evenodd"/>
      <path id="Path_20392" data-name="Path 20392" d="M5114.5,1292.107a12.126,12.126,0,1,1,12.125-12.125,12.126,12.126,0,0,1-12.125,12.125Zm0-6.427a5.7,5.7,0,1,0-5.7-5.7A5.7,5.7,0,0,0,5114.5,1285.681Z" transform="translate(-5080.143 -1263.805)" fill="#24272d" fill-rule="evenodd"/>
      <path id="Path_20393" data-name="Path 20393" d="M5167.2,1288.595h6.454v-5.822a9.788,9.788,0,0,0-4.636-8.3,4.019,4.019,0,0,1,4-3.849h.633v-6.311h-1.485a9.434,9.434,0,0,0-9.376,8.691h-2.243v-12.694l-6.472-.016v23.866h6.472v-4.847h2.538a4.126,4.126,0,0,1,4.113,4.114Z" transform="translate(-5104.15 -1260.292)" fill="#24272d" fill-rule="evenodd"/>
      <ellipse id="Ellipse_1325" data-name="Ellipse 1325" cx="3.15" cy="3.15" rx="3.15" ry="3.15" transform="translate(132.311 22.048)" fill="#24272d"/>
    </g>
  </g>
</svg>
