<svg xmlns="http://www.w3.org/2000/svg" width="37.078" height="6.339" viewBox="0 0 37.078 6.339">
  <g id="Group_9090" data-name="Group 9090" transform="translate(-30.724 -727.046)">
    <path id="Path_1061" data-name="Path 1061" d="M633.576,270.1a1.4,1.4,0,0,0-1.047.422,1.469,1.469,0,0,0-.417,1.058,1.389,1.389,0,0,0,.45,1.07,1.648,1.648,0,0,0,1.166.411,2.629,2.629,0,0,0,1.064-.242v-.568a2.157,2.157,0,0,1-1.064.276.92.92,0,0,1-1.008-.743h2.19a1.5,1.5,0,0,0,.028-.332,1.333,1.333,0,0,0-1.363-1.351Zm-.017.557a.771.771,0,0,1,.8.659h-1.633A.8.8,0,0,1,633.559,270.656Z" transform="translate(-585.66 458.949)" fill="#121621"/>
    <path id="Path_1062" data-name="Path 1062" d="M1019.972,271.183a1.26,1.26,0,0,0-.856.343v-.287h-.586v2.815h.586v-1.413a.8.8,0,0,1,.89-.884.867.867,0,0,1,.107.011v-.574C1020.062,271.189,1020,271.183,1019.972,271.183Z" transform="translate(-962.461 457.892)" fill="#121621"/>
    <path id="Path_1063" data-name="Path 1063" d="M790,274.6l1.047-1.373h-.71l-1.03,1.385,1.092,1.43h.693l-1.1-1.435Z" transform="translate(-738.939 455.901)" fill="#121621"/>
    <path id="Path_1064" data-name="Path 1064" d="M765.481,227.3H764.9v3.957h.586Z" transform="translate(-715.138 500.68)" fill="#121621"/>
    <path id="Path_1065" data-name="Path 1065" d="M343.315,227.7v-.152h-1.836v.557H342.7v.822a2.351,2.351,0,0,1-.867.163,1.44,1.44,0,0,1-1.047-.411,1.485,1.485,0,0,1,0-2.015,1.652,1.652,0,0,1,1.2-.411,2.433,2.433,0,0,1,1.143.276v-.642a2.794,2.794,0,0,0-1.143-.242,2.342,2.342,0,0,0-1.639.585,1.983,1.983,0,0,0-.591,1.441,2.005,2.005,0,0,0,.591,1.447,2.039,2.039,0,0,0,1.481.58,2.864,2.864,0,0,0,1.481-.417V227.7Z" transform="translate(-300.578 502.301)" fill="#121621"/>
    <path id="Path_1066" data-name="Path 1066" d="M504.414,270.51a1.364,1.364,0,0,0-1-.411,1.4,1.4,0,0,0-1.047.422,1.469,1.469,0,0,0-.417,1.058,1.389,1.389,0,0,0,.45,1.07,1.531,1.531,0,0,0,.293.208,1.808,1.808,0,0,0,.878.2,2.628,2.628,0,0,0,1.064-.242v-.568a1.971,1.971,0,0,1-.22.107,2.131,2.131,0,0,1-.845.163.92.92,0,0,1-1.008-.743h2.185a1.5,1.5,0,0,0,.028-.332,1.323,1.323,0,0,0-.349-.918Q504.422,270.527,504.414,270.51Zm-.22.8h-1.633a.812.812,0,0,1,.833-.659A.771.771,0,0,1,504.194,271.315Z" transform="translate(-458.738 458.949)" fill="#121621"/>
    <path id="Path_1067" data-name="Path 1067" d="M1234.766,273.225h-.586v2.814h.586Z" transform="translate(-1172.746 455.901)" fill="#121621"/>
    <path id="Path_1068" data-name="Path 1068" d="M1231.382,223.907a.343.343,0,0,0-.264.107.394.394,0,0,0,0,.54.352.352,0,0,0,.264.107.345.345,0,0,0,.265-.107.4.4,0,0,0,0-.54A.345.345,0,0,0,1231.382,223.907Z" transform="translate(-1169.654 503.992)" fill="#121621"/>
    <path id="Path_1069" data-name="Path 1069" d="M1404.515,272.61a.673.673,0,0,0-.13-.422,1.505,1.505,0,0,0-.884-.467,2.061,2.061,0,0,1-.445-.146.255.255,0,0,1-.152-.236h0c0-.191.237-.281.524-.281a1.975,1.975,0,0,1,.957.236v-.585a2.4,2.4,0,0,0-.957-.2,1.361,1.361,0,0,0-.811.225.742.742,0,0,0-.287.63c0,.546.473.754,1.013.889a2.053,2.053,0,0,1,.445.146.255.255,0,0,1,.152.236c0,.2-.209.293-.552.293a2.978,2.978,0,0,1-1.019-.174v.546a3.224,3.224,0,0,0,1.019.169,1.445,1.445,0,0,0,.828-.231.727.727,0,0,0,.175-.174A.813.813,0,0,0,1404.515,272.61Z" transform="translate(-1336.713 458.549)" fill="#121621"/>
    <path id="Path_1070" data-name="Path 1070" d="M879.648,229.408a.9.9,0,0,0,.383-.771,1.076,1.076,0,0,0-.343-.794,1.284,1.284,0,0,0-.867-.315h-1.667v3.952h1.808a1.309,1.309,0,0,0,.89-.321,1.074,1.074,0,0,0,.344-.811A1.045,1.045,0,0,0,879.648,229.408Zm-1.892-1.34h1.126a.563.563,0,0,1,0,1.126h-1.126Zm1.233,2.876h-1.233v-1.216h1.233a.608.608,0,0,1,0,1.216Z" transform="translate(-824.604 500.461)" fill="#121621"/>
    <path id="Path_1071" data-name="Path 1071" d="M1285.421,270.82a.637.637,0,0,1,.552.242.816.816,0,0,1,.13.484v1.621h.585v-1.644a1.261,1.261,0,0,0-.281-.861l-.011-.011a1.063,1.063,0,0,0-.822-.371,1.308,1.308,0,0,0-.828.287v-.214h-.586v2.815h.586v-1.621a.761.761,0,0,1,.146-.462.646.646,0,0,1,.169-.158A.608.608,0,0,1,1285.421,270.82Z" transform="translate(-1221.483 458.773)" fill="#121621"/>
    <path id="Path_1072" data-name="Path 1072" d="M1089.75,270.623a1.39,1.39,0,0,0-.946-.343,1.408,1.408,0,0,0-1.036.428,1.383,1.383,0,0,0-.2.248c-.011.017-.023.039-.034.056a1.452,1.452,0,0,0-.192.749,1.435,1.435,0,0,0,.428,1.053,1.408,1.408,0,0,0,1.036.428,1.349,1.349,0,0,0,.946-.349v.276h.585v-2.815h-.585Zm-.265,1.807a.953.953,0,0,1-1.306,0,.912.912,0,0,1-.259-.664.89.89,0,0,1,.259-.659.939.939,0,0,1,1.306,0,.89.89,0,0,1,.259.659A.912.912,0,0,1,1089.485,272.43Z" transform="translate(-1029.558 458.773)" fill="#121621"/>
    <path id="Path_1073" data-name="Path 1073" d="M128.015,190.274a1.24,1.24,0,0,0-.184.733v.443a.634.634,0,0,0,.139.4l.431.539a.427.427,0,0,1,.064,0,.422.422,0,1,1-.394.269l-.431-.539a1.056,1.056,0,0,1-.232-.66v-.443a1.65,1.65,0,0,1,.265-.983.946.946,0,0,1,.791-.39,1.268,1.268,0,0,1,1.174.786,1.162,1.162,0,0,1,.834,1.115,1.236,1.236,0,0,1-.034.334,1.057,1.057,0,0,1,0,1.867,1.237,1.237,0,0,1,.033.334,1.162,1.162,0,0,1-.834,1.115,1.27,1.27,0,0,1-1.57.723l.132-.4a.847.847,0,0,0,1.075-.561l.037-.125.128-.023a.74.74,0,0,0,.609-.728c0-.184-.014-.251-.065-.313a.29.29,0,0,0-.266-.106.448.448,0,0,0-.294.166l-.248.31a.423.423,0,1,1-.394-.269.428.428,0,0,1,.064,0l.248-.31a.871.871,0,0,1,.58-.322.717.717,0,0,1,.529.15.634.634,0,0,0,0-1.158.716.716,0,0,1-.529.15.871.871,0,0,1-.58-.322l-.248-.31a.422.422,0,1,1,.33-.264l.248.31a.448.448,0,0,0,.294.166.29.29,0,0,0,.266-.106c.051-.062.065-.129.065-.313a.74.74,0,0,0-.609-.728l-.128-.023-.037-.125a.846.846,0,0,0-.81-.6A.524.524,0,0,0,128.015,190.274Z" transform="translate(-93.515 537.412)" fill="#121621"/>
    <path id="Path_1074" data-name="Path 1074" d="M1.825,194.129a.423.423,0,1,0,.33-.264l-.248-.31a.871.871,0,0,0-.58-.322.716.716,0,0,0-.529.15.634.634,0,0,1,0-1.158.716.716,0,0,0,.529.15.871.871,0,0,0,.58-.322l.248-.311a.422.422,0,1,0-.33-.264l-.248.31a.448.448,0,0,1-.294.166.29.29,0,0,1-.266-.106c-.051-.062-.065-.129-.065-.313a.74.74,0,0,1,.609-.728l.128-.023.037-.125A.847.847,0,0,1,2.8,190.1l.132-.4a1.27,1.27,0,0,0-1.57.723,1.163,1.163,0,0,0-.834,1.115,1.237,1.237,0,0,0,.034.334,1.057,1.057,0,0,0,0,1.867,1.237,1.237,0,0,0-.034.334,1.162,1.162,0,0,0,.834,1.115,1.268,1.268,0,0,0,1.174.787.946.946,0,0,0,.791-.39,1.65,1.65,0,0,0,.265-.983v-.443a1.056,1.056,0,0,0-.232-.66l-.431-.539a.422.422,0,1,0-.33.264l.431.539a.634.634,0,0,1,.139.4v.443a1.24,1.24,0,0,1-.184.733.524.524,0,0,1-.45.217.846.846,0,0,1-.81-.6l-.037-.125L1.56,194.8a.74.74,0,0,1-.609-.728c0-.184.014-.251.065-.313a.29.29,0,0,1,.266-.106.448.448,0,0,1,.294.166Z" transform="translate(30.724 537.412)" fill="#121621"/>
  </g>
</svg>
