<svg xmlns="http://www.w3.org/2000/svg" width="236.036" height="52.488" viewBox="0 0 236.036 52.488">
  <g id="Сгруппировать_9026" data-name="Сгруппировать 9026" transform="translate(-68.532 -81)">
    <text id="Тысячи_знаний_внутри" data-name="Тысячи знаний внутри" transform="translate(122.568 94)" fill="#24272d" font-size="17" font-family="Helvetica"><tspan x="0" y="0">Тысячи знаний внутри</tspan></text>
    <g id="Сгруппировать_4751" data-name="Сгруппировать 4751" transform="translate(122.069 100.309)">
      <path id="Контур_20388" data-name="Контур 20388" d="M5062.606,1275.561a7.7,7.7,0,0,0,1.675,5.412c2.677,3.107,6.662,3.513,9.831,5.593.786.515,1.474,1.447.905,2.389-1.069,1.766-5.368.5-6.83-.178a11.455,11.455,0,0,1-2.637-1.713c-.58.522-3.689,3.716-4.679,4.726a16.934,16.934,0,0,0,10.543,4.231,12.89,12.89,0,0,0,8.819-2.922,7.605,7.605,0,0,0,1.234-9.78c-2.684-3.845-10.232-4.906-11.362-6.942-.616-1.107.454-2.519,2.333-2.57,2.19.236,3.265.6,5.94,2.158.608-.61,3.288-3.309,4.146-4.182a12.574,12.574,0,0,0-8.729-3.971C5068.8,1267.665,5063.219,1270.054,5062.606,1275.561Z" transform="translate(-5060.872 -1263.127)" fill="#24272d" fill-rule="evenodd"/>
      <path id="Контур_20389" data-name="Контур 20389" d="M5196.879,1296.049h7.265v-16.2a4.671,4.671,0,0,1,4.657-4.657h.736v-7.338h-1.727a10.964,10.964,0,0,0-10.932,10.931Z" transform="translate(-5112.184 -1263.146)" fill="#24272d" fill-rule="evenodd"/>
      <path id="Контур_20390" data-name="Контур 20390" d="M5279.027,1260.36h7.3v4.624h6v7.8h-6v8.469a4.693,4.693,0,0,0,4.679,4.679h.74v7.371h-1.737a11.014,11.014,0,0,1-10.982-10.981v-9.538h-3.506v-7.8h3.506Z" transform="translate(-5141.854 -1260.318)" fill="#24272d" fill-rule="evenodd"/>
      <path id="Контур_20391" data-name="Контур 20391" d="M5244.892,1296.017h7.091v-12.166c-.039-.594,0-1.2,0-1.813a14.253,14.253,0,1,0-7.091,12.328v1.65Zm-7.166-7.269a6.71,6.71,0,1,1,6.709-6.709A6.71,6.71,0,0,1,5237.726,1288.748Z" transform="translate(-5122.214 -1263.118)" fill="#24272d" fill-rule="evenodd"/>
      <path id="Контур_20392" data-name="Контур 20392" d="M5116.476,1296.049a14.1,14.1,0,1,1,14.1-14.1,14.1,14.1,0,0,1-14.1,14.1Zm0-7.471a6.625,6.625,0,1,0-6.626-6.625A6.626,6.626,0,0,0,5116.476,1288.578Z" transform="translate(-5076.531 -1263.146)" fill="#24272d" fill-rule="evenodd"/>
      <path id="Контур_20393" data-name="Контур 20393" d="M5169.328,1293.2h7.5v-6.768a11.378,11.378,0,0,0-5.391-9.651,4.673,4.673,0,0,1,4.654-4.474h.736v-7.337H5175.1a10.967,10.967,0,0,0-10.9,10.1H5161.6v-14.758l-7.523-.019v27.745h7.523V1282.4h2.951a4.8,4.8,0,0,1,4.782,4.783Z" transform="translate(-5096.034 -1260.293)" fill="#24272d" fill-rule="evenodd"/>
      <circle id="Эллипс_1325" data-name="Эллипс 1325" cx="3.662" cy="3.662" r="3.662" transform="translate(153.818 25.631)" fill="#24272d"/>
    </g>
    <g id="Сгруппировать_4742" data-name="Сгруппировать 4742" transform="translate(68.532 84.083)">
      <g id="Icons" transform="translate(0 0)">
        <path id="Контур_20432" data-name="Контур 20432" d="M22.769,51.4a7.942,7.942,0,0,1-7.913-7.236,7.922,7.922,0,0,1-5.77-12.5,6.579,6.579,0,0,1,1.682-12.5,6.445,6.445,0,0,1-.595-2.728,6.606,6.606,0,0,1,4.715-6.327,6.328,6.328,0,0,1-.182-1.5A6.628,6.628,0,0,1,21.5,2a6.775,6.775,0,0,1,6.431,6.846V47.257a3.952,3.952,0,0,1-2.795,3.79,7.951,7.951,0,0,1-2.365.353ZM21.325,3.41A5.179,5.179,0,0,0,16.442,10.4a.706.706,0,0,1-.543.931,5.2,5.2,0,0,0-4.316,5.119,4.975,4.975,0,0,0,.925,2.922.706.706,0,0,1-.573,1.117,5.267,5.267,0,0,0-5.311,5.209,5.2,5.2,0,0,0,3.811,4.971.706.706,0,0,1,.333,1.153A6.6,6.6,0,0,0,9.02,36.242a6.532,6.532,0,0,0,6.51,6.539.706.706,0,0,1,.706.706,6.541,6.541,0,0,0,8.476,6.21,2.546,2.546,0,0,0,1.806-2.44V8.844A5.353,5.353,0,0,0,21.461,3.41Z" transform="translate(-5.213 -1.995)" fill="#24272d"/>
      </g>
      <g id="Icons-2" data-name="Icons" transform="translate(23.996 0)">
        <path id="Контур_20432-2" data-name="Контур 20432" d="M10.373,51.4a7.942,7.942,0,0,0,7.913-7.236,7.922,7.922,0,0,0,5.77-12.5,6.579,6.579,0,0,0-1.682-12.5,6.445,6.445,0,0,0,.595-2.728,6.606,6.606,0,0,0-4.715-6.327,6.328,6.328,0,0,0,.182-1.5A6.628,6.628,0,0,0,11.645,2,6.775,6.775,0,0,0,5.214,8.844V47.257a3.952,3.952,0,0,0,2.795,3.79,7.951,7.951,0,0,0,2.365.353ZM11.817,3.41A5.179,5.179,0,0,1,16.7,10.4a.706.706,0,0,0,.543.931,5.2,5.2,0,0,1,4.316,5.119,4.975,4.975,0,0,1-.925,2.922.706.706,0,0,0,.573,1.117,5.267,5.267,0,0,1,5.311,5.209,5.2,5.2,0,0,1-3.811,4.971.706.706,0,0,0-.333,1.153,6.6,6.6,0,0,1,1.748,4.425,6.532,6.532,0,0,1-6.51,6.539.706.706,0,0,0-.706.706A6.541,6.541,0,0,1,8.431,49.7a2.546,2.546,0,0,1-1.806-2.44V8.844A5.353,5.353,0,0,1,11.681,3.41Z" transform="translate(-5.213 -1.995)" fill="#24272d"/>
      </g>
      <circle id="Эллипс_1327" data-name="Эллипс 1327" cx="3.951" cy="3.951" r="3.951" transform="translate(12.215 2.723)" fill="#24272d"/>
      <circle id="Эллипс_1339" data-name="Эллипс 1339" cx="3.927" cy="3.927" r="3.927" transform="translate(26.642 2.773)" fill="#ef4864"/>
      <ellipse id="Эллипс_1328" data-name="Эллипс 1328" cx="4.818" cy="4.722" rx="4.818" ry="4.722" transform="translate(7.397 10.239)" fill="#d1e92a"/>
      <ellipse id="Эллипс_1337" data-name="Эллипс 1337" cx="4.799" cy="4.799" rx="4.799" ry="4.799" transform="translate(29.696 10.191)" fill="#00a7cf"/>
      <ellipse id="Эллипс_1329" data-name="Эллипс 1329" cx="4.336" cy="4.433" rx="4.336" ry="4.433" transform="translate(2.579 19.297)" fill="#ef4864"/>
      <ellipse id="Эллипс_1336" data-name="Эллипс 1336" cx="4.363" cy="4.363" rx="4.363" ry="4.363" transform="translate(35.368 19.354)" fill="#24272d"/>
      <circle id="Эллипс_1330" data-name="Эллипс 1330" cx="5.011" cy="5.011" r="5.011" transform="translate(4.892 29.317)" fill="#00a7cf"/>
      <ellipse id="Эллипс_1340" data-name="Эллипс 1340" cx="5.017" cy="5.017" rx="5.017" ry="5.017" transform="translate(31.877 29.39)" fill="#d1e92a"/>
      <circle id="Эллипс_1331" data-name="Эллипс 1331" cx="4.143" cy="4.143" r="4.143" transform="translate(12.6 38.571)" fill="#ef4864"/>
      <ellipse id="Эллипс_1344" data-name="Эллипс 1344" cx="4.145" cy="4.145" rx="4.145" ry="4.145" transform="translate(25.769 38.552)" fill="#24272d"/>
      <ellipse id="Эллипс_1332" data-name="Эллипс 1332" cx="4.529" cy="4.625" rx="4.529" ry="4.625" transform="translate(11.83 21.03)" fill="#24272d"/>
      <ellipse id="Эллипс_1338" data-name="Эллипс 1338" cx="4.581" cy="4.581" rx="4.581" ry="4.581" transform="translate(25.769 21.099)" fill="#ef4864"/>
      <circle id="Эллипс_1333" data-name="Эллипс 1333" cx="2.12" cy="2.12" r="2.12" transform="translate(16.647 16.408)" fill="#00a7cf"/>
      <ellipse id="Эллипс_1342" data-name="Эллипс 1342" cx="2.181" cy="2.181" rx="2.181" ry="2.181" transform="translate(25.769 16.3)" fill="#d1e92a"/>
      <circle id="Эллипс_1335" data-name="Эллипс 1335" cx="2.794" cy="2.794" r="2.794" transform="translate(15.298 32.016)" fill="#d1e92a"/>
      <ellipse id="Эллипс_1341" data-name="Эллипс 1341" cx="2.836" cy="2.836" rx="2.836" ry="2.836" transform="translate(25.769 32.007)" fill="#00a7cf"/>
      <circle id="Эллипс_1334" data-name="Эллипс 1334" cx="1.734" cy="1.734" r="1.734" transform="translate(17.033 10.621)" fill="#ef4864"/>
      <ellipse id="Эллипс_1343" data-name="Эллипс 1343" cx="1.745" cy="1.745" rx="1.745" ry="1.745" transform="translate(26.206 10.627)" fill="#24272d"/>
    </g>
  </g>
</svg>
