<svg xmlns="http://www.w3.org/2000/svg" width="24.035" height="27.827" viewBox="0 0 24.035 27.827"><g transform="translate(0)"><g transform="translate(0 0)"><path d="M57.111,10.7,40.675.571a3.8,3.8,0,0,0-5.792,3.236v20.17a3.84,3.84,0,0,0,3.792,3.85h.017a3.814,3.814,0,0,0,1.97-.593,1.085,1.085,0,0,0-1.13-1.853,1.665,1.665,0,0,1-.845.275,1.686,1.686,0,0,1-1.634-1.679V3.807a1.63,1.63,0,0,1,2.484-1.388L55.972,12.55a1.63,1.63,0,0,1-.007,2.781L44.082,22.606a1.085,1.085,0,0,0,1.133,1.851L57.1,17.182a3.8,3.8,0,0,0,.014-6.48Z" transform="translate(-34.883 0)" fill="#24272d"/></g></g></svg>