<svg xmlns="http://www.w3.org/2000/svg" xmlns:xlink="http://www.w3.org/1999/xlink" width="462.77" height="399.79" viewBox="0 0 462.77 399.79">
  <defs>
    <filter id="Контур_20507" x="281.93" y="0" width="83.57" height="80.391" filterUnits="userSpaceOnUse">
      <feOffset dy="1" input="SourceAlpha"/>
      <feGaussianBlur stdDeviation="0.5" result="blur"/>
      <feFlood flood-opacity="0.161"/>
      <feComposite operator="in" in2="blur"/>
      <feComposite in="SourceGraphic"/>
    </filter>
    <filter id="Контур_20532" x="231.916" y="123.14" width="230.855" height="167.761" filterUnits="userSpaceOnUse">
      <feOffset dy="3" input="SourceAlpha"/>
      <feGaussianBlur stdDeviation="3" result="blur-2"/>
      <feFlood flood-opacity="0.161"/>
      <feComposite operator="in" in2="blur-2"/>
      <feComposite in="SourceGraphic"/>
    </filter>
    <filter id="Контур_20434" x="79.097" y="10.623" width="158.857" height="153.949" filterUnits="userSpaceOnUse">
      <feOffset dy="3" input="SourceAlpha"/>
      <feGaussianBlur stdDeviation="3" result="blur-3"/>
      <feFlood flood-opacity="0.161"/>
      <feComposite operator="in" in2="blur-3"/>
      <feComposite in="SourceGraphic"/>
    </filter>
    <filter id="Контур_20437" x="60.759" y="84.741" width="207.314" height="315.049" filterUnits="userSpaceOnUse">
      <feOffset dx="-1" input="SourceAlpha"/>
      <feGaussianBlur stdDeviation="3" result="blur-4"/>
      <feFlood flood-opacity="0.161"/>
      <feComposite operator="in" in2="blur-4"/>
      <feComposite in="SourceGraphic"/>
    </filter>
    <filter id="Контур_20441" x="119.928" y="40.235" width="38.62" height="36.659" filterUnits="userSpaceOnUse">
      <feOffset dy="2" input="SourceAlpha"/>
      <feGaussianBlur stdDeviation="1" result="blur-5"/>
      <feFlood flood-opacity="0.161"/>
      <feComposite operator="in" in2="blur-5"/>
      <feComposite in="SourceGraphic"/>
    </filter>
    <filter id="Контур_20472" x="97.774" y="148.441" width="133.049" height="203.25" filterUnits="userSpaceOnUse">
      <feOffset dy="3" input="SourceAlpha"/>
      <feGaussianBlur stdDeviation="3" result="blur-6"/>
      <feFlood flood-opacity="0.161"/>
      <feComposite operator="in" in2="blur-6"/>
      <feComposite in="SourceGraphic"/>
    </filter>
  </defs>
  <g id="page-course-img" transform="translate(-61.694 -158.086)">
    <g id="Сгруппировать_4749" data-name="Сгруппировать 4749" transform="translate(61.694 158.586)">
      <g id="Сгруппировать_4746" data-name="Сгруппировать 4746" transform="translate(213.827)">
        <path id="Контур_20504" data-name="Контур 20504" d="M3386.318,421.482c1.453,1.991,3.316,3.606,4.769,5.6-.76,5.8-3.2,10.315-3.959,16.114-.837,6.389-.407,14.438-1.245,20.829l-8.146,1.637c1.583-8.15,3.764-14.765,5.345-22.915C3384.359,436.17,3385.042,428.057,3386.318,421.482Z" transform="translate(-3276.81 -352.814)" fill="#10758e" fill-rule="evenodd"/>
        <path id="Контур_20505" data-name="Контур 20505" d="M3309.221,740.163c-28.659-.03-45.35-170.834,17.843-246.74,19.449-23.362,44.026-37.076,50.6-33.3,4.71,2.708,20.946-1.075,23.773,1.6,5.862,5.548,23.818,12.452,28,21.173,21.479,44.754,39.734,80.391,32.736,129.985-2.165,15.346,5.81,27.95,4.449,62.928l-2.509,64.51Z" transform="translate(-3283.696 -350.03)" fill="#a9bd24" fill-rule="evenodd"/>
        <path id="Контур_20506" data-name="Контур 20506" d="M3413.623,426.738c-7.778,7.647-21.66,4.743-24.306,1.157s-3.578-2.46-4.284-5.013c-.864-.086-3.114.687-4.088-.523s-1.631-6.448-.36-7.7,5.221.714,5.957.485c.317-4.133-.741-14.962,4.627-20.24s20.67-1.717,26.316,5.292S3421.4,419.09,3413.623,426.738Z" transform="translate(-3276.652 -354.946)" fill="#00a7cf" fill-rule="evenodd"/>
        <g transform="matrix(1, 0, 0, 1, -213.83, -0.5)" filter="url(#Контур_20507)">
          <path id="Контур_20507-2" data-name="Контур 20507" d="M3349.884,374.687c.633-1.585,5.837-2.229,10.6-.323,4.014,1.607-1.027-7.555,3.813-9.852,2.447-1.161,6.4,4.074,8.264,3.179,4.219-2.031,5.4-8.147,7.944-9.217.818-.345,2.914-1.367,3.814,0,1.99,3.02,2.3,6.9,5.8,6.4,4.448-.635,7.466-8.457,13.046-7.247,5.248,1.135,3.656,7.8,4.356,10.064.929,2.994,3.715,1.609,10.487,2.224,3.5.318,4.495,5.219,3.814,7.628-.7,2.472-3.823,4.445-4.131,6.357-.776,4.8,9.375,5.572,11.123,8.9.71,1.35.363,4.466-3.178,6.356-2.015,1.074-4.133-.937-8.263.636-1.839.7-1.875,2.376-3.5,2.541-2.144.219-5.4-1.588-5.4-1.588-14.4-9.011-5.3,10.3-11.759,12.077-1.444.4-4.379.058-5.4.953-1.118.975-1.588,5.086-1.588,5.086-2.863-1.56-9.851,2.812-6.041,5.72,1.111.848,3.972.478,3.815.635-1.772,1.769.3,12.648-9.015,8.894-1.008-.407-5.9-10.333-8.805-7.941-2.467,2.035-4.405,5.231-6.971,6.039-13.18,4.152-5.176-15.346-5.72-17.8-1.123-5.065-7.423-8.317-7.986-9.529a5.841,5.841,0,0,1,2.583-7.315c3.763-1.856,9.2-1.235,4.651-6.35C3351.436,385.8,3347.089,381.688,3349.884,374.687Z" transform="translate(-3065.12 -357)" fill="#1f2024" fill-rule="evenodd"/>
        </g>
        <path id="Контур_20508" data-name="Контур 20508" d="M3498.552,423.222c-.792,0-3.605,12.383-7.037,23.595-1.677,5.484-4.533,11.441-5.381,14.076-3.724,11.59-6.963,20.923-7.582,26.959h6.593a52.585,52.585,0,0,0,1.268-5.529c1.091-5.814,3.343-16.651,8-22.672,2.133-2.757,5.027-3.483,6.209-5.8C3504.316,446.62,3501.038,441.023,3498.552,423.222Z" transform="translate(-3269.313 -352.687)" fill="#00a7cf" fill-rule="evenodd"/>
        <path id="Контур_20509" data-name="Контур 20509" d="M3478.4,486.035l5.628,3.586,2.445-10.947s-4.522-1.044-5.781-.87C3478.747,478.072,3479.554,480.026,3478.4,486.035Z" transform="translate(-3269.438 -348.691)" fill="#10758e" fill-rule="evenodd"/>
        <path id="Контур_20510" data-name="Контур 20510" d="M3483.024,461.989s2.682,1.887,5.691-5.556c1.705-4.217,3.121-10.618,4.694-16.163,2.328-8.2,4.517-15.124,4.517-15.124.484-4.438,3.411-11.793-.82-11.213-.837.114-2.7,8.872-5.389,18.25C3488.179,444.514,3483.683,458.575,3483.024,461.989Z" transform="translate(-3269.1 -353.369)" fill="#1f2024" fill-rule="evenodd"/>
        <path id="Контур_20511" data-name="Контур 20511" d="M3333.067,502.4a7.517,7.517,0,1,0-7.517-7.517A7.531,7.531,0,0,0,3333.067,502.4Z" transform="translate(-3280.63 -347.99)" fill="#1f2024" fill-rule="evenodd"/>
        <path id="Контур_20512" data-name="Контур 20512" d="M3316.454,533.389a7.517,7.517,0,1,0-7.517-7.517A7.532,7.532,0,0,0,3316.454,533.389Z" transform="translate(-3281.848 -345.72)" fill="#1f2024" fill-rule="evenodd"/>
        <path id="Контур_20513" data-name="Контур 20513" d="M3307.454,568.789a7.517,7.517,0,1,0-7.516-7.517A7.53,7.53,0,0,0,3307.454,568.789Z" transform="translate(-3282.507 -343.128)" fill="#1f2024" fill-rule="evenodd"/>
        <path id="Контур_20514" data-name="Контур 20514" d="M3301.981,610.242a7.517,7.517,0,1,0-7.517-7.517A7.53,7.53,0,0,0,3301.981,610.242Z" transform="translate(-3282.907 -340.092)" fill="#1f2024" fill-rule="evenodd"/>
        <path id="Контур_20515" data-name="Контур 20515" d="M3341.539,627.456a7.517,7.517,0,1,0-7.517-7.518A7.532,7.532,0,0,0,3341.539,627.456Z" transform="translate(-3280.011 -338.832)" fill="#1f2024" fill-rule="evenodd"/>
        <path id="Контур_20516" data-name="Контур 20516" d="M3390.309,626.188a7.517,7.517,0,1,0-7.517-7.517A7.531,7.531,0,0,0,3390.309,626.188Z" transform="translate(-3276.439 -338.924)" fill="#1f2024" fill-rule="evenodd"/>
        <path id="Контур_20517" data-name="Контур 20517" d="M3426.282,638.022a7.517,7.517,0,1,0-7.517-7.517A7.532,7.532,0,0,0,3426.282,638.022Z" transform="translate(-3273.805 -338.058)" fill="#1f2024" fill-rule="evenodd"/>
        <path id="Контур_20518" data-name="Контур 20518" d="M3367.064,651.188a7.517,7.517,0,1,0-7.517-7.517A7.53,7.53,0,0,0,3367.064,651.188Z" transform="translate(-3278.141 -337.094)" fill="#1f2024" fill-rule="evenodd"/>
        <path id="Контур_20519" data-name="Контур 20519" d="M3334.533,665.2a7.517,7.517,0,1,0-7.516-7.517A7.532,7.532,0,0,0,3334.533,665.2Z" transform="translate(-3280.524 -336.068)" fill="#1f2024" fill-rule="evenodd"/>
        <path id="Контур_20520" data-name="Контур 20520" d="M3336.935,693.975a7.517,7.517,0,1,0-7.518-7.517A7.532,7.532,0,0,0,3336.935,693.975Z" transform="translate(-3280.349 -333.96)" fill="#1f2024" fill-rule="evenodd"/>
        <path id="Контур_20521" data-name="Контур 20521" d="M3320.524,718.577a7.517,7.517,0,1,0-7.516-7.517A7.532,7.532,0,0,0,3320.524,718.577Z" transform="translate(-3281.55 -332.159)" fill="#1f2024" fill-rule="evenodd"/>
        <path id="Контур_20522" data-name="Контур 20522" d="M3369.5,715.281a7.517,7.517,0,1,0-7.517-7.517A7.533,7.533,0,0,0,3369.5,715.281Z" transform="translate(-3277.963 -332.4)" fill="#1f2024" fill-rule="evenodd"/>
        <path id="Контур_20523" data-name="Контур 20523" d="M3397.314,659.383a7.517,7.517,0,1,0-7.518-7.517A7.532,7.532,0,0,0,3397.314,659.383Z" transform="translate(-3275.927 -336.493)" fill="#1f2024" fill-rule="evenodd"/>
        <path id="Контур_20524" data-name="Контур 20524" d="M3441.879,662.8a7.517,7.517,0,1,0-7.517-7.517A7.532,7.532,0,0,0,3441.879,662.8Z" transform="translate(-3272.663 -336.243)" fill="#1f2024" fill-rule="evenodd"/>
        <path id="Контур_20525" data-name="Контур 20525" d="M3419.279,676.8a7.517,7.517,0,1,0-7.518-7.517A7.532,7.532,0,0,0,3419.279,676.8Z" transform="translate(-3274.318 -335.218)" fill="#1f2024" fill-rule="evenodd"/>
        <path id="Контур_20526" data-name="Контур 20526" d="M3436.593,712.463a7.517,7.517,0,1,0-7.517-7.517A7.532,7.532,0,0,0,3436.593,712.463Z" transform="translate(-3273.05 -332.606)" fill="#1f2024" fill-rule="evenodd"/>
        <path id="Контур_20527" data-name="Контур 20527" d="M3378.25,684.448a7.517,7.517,0,1,0-7.517-7.517A7.531,7.531,0,0,0,3378.25,684.448Z" transform="translate(-3277.323 -334.658)" fill="#1f2024" fill-rule="evenodd"/>
        <path id="Контур_20528" data-name="Контур 20528" d="M3405.27,704.569a7.517,7.517,0,1,0-7.517-7.517A7.531,7.531,0,0,0,3405.27,704.569Z" transform="translate(-3275.344 -333.185)" fill="#1f2024" fill-rule="evenodd"/>
        <path id="Контур_20529" data-name="Контур 20529" d="M3302,679.2a7.517,7.517,0,1,0-7.517-7.517A7.533,7.533,0,0,0,3302,679.2Z" transform="translate(-3282.907 -335.042)" fill="#1f2024" fill-rule="evenodd"/>
        <path id="Контур_20530" data-name="Контур 20530" d="M3309.968,642.3a7.517,7.517,0,1,0-7.516-7.517A7.531,7.531,0,0,0,3309.968,642.3Z" transform="translate(-3282.323 -337.745)" fill="#1f2024" fill-rule="evenodd"/>
        <path id="Контур_20531" data-name="Контур 20531" d="M3436.593,606.224a7.517,7.517,0,1,0-7.517-7.517A7.532,7.532,0,0,0,3436.593,606.224Z" transform="translate(-3273.05 -340.387)" fill="#1f2024" fill-rule="evenodd"/>
        <g transform="matrix(1, 0, 0, 1, -213.83, -0.5)" filter="url(#Контур_20532)">
          <path id="Контур_20532-2" data-name="Контур 20532" d="M3422.82,501.611c25.536-51.378,120-10.576,94.708,25.424-10.762,15.316-29.7,44.937-48.047,61.387-34.829,31.232-187.706,86.191-156.328-43.289,6.615-27.294,25.583-64.6,63.266-67.677C3391.7,476.211,3403.181,541.127,3422.82,501.611Z" transform="translate(-3068.02 -348.22)" fill="#d1e92a" fill-rule="evenodd"/>
        </g>
        <circle id="Эллипс_1345" data-name="Эллипс 1345" cx="6.471" cy="6.471" r="6.471" transform="translate(81.566 135.788)" fill="#1f2024"/>
        <path id="Контур_20533" data-name="Контур 20533" d="M3339.015,519.211a6.461,6.461,0,1,0-6.46-6.461A6.473,6.473,0,0,0,3339.015,519.211Z" transform="translate(-3280.118 -346.604)" fill="#1f2024" fill-rule="evenodd"/>
        <circle id="Эллипс_1346" data-name="Эллипс 1346" cx="6.471" cy="6.471" r="6.471" transform="translate(102.863 164.211)" fill="#1f2024"/>
        <path id="Контур_20534" data-name="Контур 20534" d="M3367.064,547.806a7.517,7.517,0,1,0-7.517-7.517A7.53,7.53,0,0,0,3367.064,547.806Z" transform="translate(-3278.141 -344.665)" fill="#1f2024" fill-rule="evenodd"/>
        <path id="Контур_20535" data-name="Контур 20535" d="M3390.309,575.793a7.517,7.517,0,1,0-7.517-7.517A7.531,7.531,0,0,0,3390.309,575.793Z" transform="translate(-3276.439 -342.615)" fill="#1f2024" fill-rule="evenodd"/>
        <path id="Контур_20536" data-name="Контур 20536" d="M3339.087,566.555a7.517,7.517,0,1,0-7.517-7.517A7.532,7.532,0,0,0,3339.087,566.555Z" transform="translate(-3280.191 -343.291)" fill="#1f2024" fill-rule="evenodd"/>
        <path id="Контур_20537" data-name="Контур 20537" d="M3375.472,606.224a7.517,7.517,0,1,0-7.515-7.517A7.533,7.533,0,0,0,3375.472,606.224Z" transform="translate(-3277.526 -340.387)" fill="#1f2024" fill-rule="evenodd"/>
        <path id="Контур_20538" data-name="Контур 20538" d="M3334.533,597.362a7.517,7.517,0,1,0-7.516-7.517A7.532,7.532,0,0,0,3334.533,597.362Z" transform="translate(-3280.524 -341.036)" fill="#1f2024" fill-rule="evenodd"/>
        <path id="Контур_20539" data-name="Контур 20539" d="M3419.279,590.129a7.517,7.517,0,1,0-7.518-7.517A7.532,7.532,0,0,0,3419.279,590.129Z" transform="translate(-3274.318 -341.565)" fill="#1f2024" fill-rule="evenodd"/>
        <path id="Контур_20540" data-name="Контур 20540" d="M3447.794,572.764a7.517,7.517,0,1,0-7.518-7.517A7.532,7.532,0,0,0,3447.794,572.764Z" transform="translate(-3272.229 -342.837)" fill="#1f2024" fill-rule="evenodd"/>
        <path id="Контур_20541" data-name="Контур 20541" d="M3430.636,511.659a7.517,7.517,0,1,0-7.517-7.517A7.532,7.532,0,0,0,3430.636,511.659Z" transform="translate(-3273.486 -347.311)" fill="#1f2024" fill-rule="evenodd"/>
        <path id="Контур_20542" data-name="Контур 20542" d="M3404.318,505.335a7.517,7.517,0,1,0-7.517-7.517A7.53,7.53,0,0,0,3404.318,505.335Z" transform="translate(-3275.413 -347.775)" fill="#1f2024" fill-rule="evenodd"/>
        <path id="Контур_20543" data-name="Контур 20543" d="M3394.272,480.523a7.517,7.517,0,1,0-7.517-7.517A7.532,7.532,0,0,0,3394.272,480.523Z" transform="translate(-3276.149 -349.592)" fill="#1f2024" fill-rule="evenodd"/>
        <path id="Контур_20544" data-name="Контур 20544" d="M3366.24,477.678a7.517,7.517,0,1,0-7.518-7.517A7.532,7.532,0,0,0,3366.24,477.678Z" transform="translate(-3278.203 -349.8)" fill="#1f2024" fill-rule="evenodd"/>
        <path id="Контур_20545" data-name="Контур 20545" d="M3441.879,545.1a7.517,7.517,0,1,0-7.517-7.517A7.532,7.532,0,0,0,3441.879,545.1Z" transform="translate(-3272.663 -344.863)" fill="#1f2024" fill-rule="evenodd"/>
        <path id="Контур_20546" data-name="Контур 20546" d="M3476.532,547.4a7.517,7.517,0,1,0-7.516-7.517A7.532,7.532,0,0,0,3476.532,547.4Z" transform="translate(-3270.126 -344.695)" fill="#1f2024" fill-rule="evenodd"/>
        <path id="Контур_20547" data-name="Контур 20547" d="M3468.807,523.408a7.517,7.517,0,1,0-7.517-7.517A7.532,7.532,0,0,0,3468.807,523.408Z" transform="translate(-3270.69 -346.451)" fill="#1f2024" fill-rule="evenodd"/>
        <path id="Контур_20548" data-name="Контур 20548" d="M3498.761,516.4a7.517,7.517,0,1,0-7.518-7.517A7.531,7.531,0,0,0,3498.761,516.4Z" transform="translate(-3268.497 -346.964)" fill="#1f2024" fill-rule="evenodd"/>
        <path id="Контур_20549" data-name="Контур 20549" d="M3461.8,498.332a7.517,7.517,0,1,0-7.519-7.517A7.531,7.531,0,0,0,3461.8,498.332Z" transform="translate(-3271.204 -348.287)" fill="#1f2024" fill-rule="evenodd"/>
        <path id="Контур_20550" data-name="Контур 20550" d="M3410.752,545.1a7.517,7.517,0,1,0-7.517-7.517A7.532,7.532,0,0,0,3410.752,545.1Z" transform="translate(-3274.942 -344.863)" fill="#1f2024" fill-rule="evenodd"/>
      </g>
      <g id="Сгруппировать_4748" data-name="Сгруппировать 4748" transform="translate(0 16.123)">
        <g id="Сгруппировать_4747" data-name="Сгруппировать 4747" transform="translate(0 0)">
          <path id="Контур_20433" data-name="Контур 20433" d="M3019.42,481.5c6.74,0,77.313,51.336,82,49.579,18.638-6.993,36.181-26.288,37.2-20.992,13.72,40.2-21.312,115.558-34.7,131.766-2.5,2.369-20.012,3.807-37.461-4.624C3010.512,610.194,3000.208,535.092,3019.42,481.5Z" transform="translate(-3010.534 -365.009)" fill="#ef4864" fill-rule="evenodd"/>
          <g transform="matrix(1, 0, 0, 1, 0, -16.62)" filter="url(#Контур_20434)">
            <path id="Контур_20434-2" data-name="Контур 20434" d="M3093.5,405.225c.634-1.586,10.012-4.669,13.348-10.17,5.153-8.495,4.645-13.983,7.946-15.574,8.581-4.131,13.229,1.589,23.135-.442,10.8-2.213,14.615-7.1,20.2-5.892,10.955,2.376,7.518,14.917,15.463,20.318,8.461,5.753,21.477,4.159,24.473,10.806,2.138,4.749.432,6.75-.954,12.076-.772,2.962-2.528,6.415,3.2,11.6,4.745,4.294,9.823,4.4,13.962,7.154,5.013,3.339,7.872,8.594,6.356,10.488-.38.474-.405,2.318-1.271,3.814-1.676,2.891-5.487,5.76-3.813,8.9,3.94,7.395,25.8,14.635,14.938,23.835-3.206,2.714-8.133,5.455-8.582,10.171-.3,3.181-.441,15.926-2.86,16.526-6.836,1.695-23.573-26.236-36.549-36.549-11.085-8.809-25.067-2.011-25.425-2.225-3.251,2.234-13.5,1.958-21.2,1.958-4.4,0-5.753-15.5-15.348-18.483-3.082-.957-7.319-.758-10.489-2.861-1.734-1.15-3.482-2-4.767-4.767-3.079-6.611,2.111-15.7-5.4-24.153C3095.05,416.341,3090.7,412.229,3093.5,405.225Z" transform="translate(-3004.52 -356.33)" fill="#1f2024" fill-rule="evenodd"/>
          </g>
          <path id="Контур_20435" data-name="Контур 20435" d="M3136.214,405.389a20.182,20.182,0,0,1,17.873,29.589,4.932,4.932,0,0,1-6.44,7.23,20.188,20.188,0,1,1-11.433-36.819Z" transform="translate(-3002.81 -370.582)" fill="#00a7cf" fill-rule="evenodd"/>
          <path id="Контур_20436" data-name="Контур 20436" d="M3141.8,448.588l4.747-3.775,4.746,20.905-4.746,3.25Z" transform="translate(-3000.922 -367.695)" fill="#10758e" fill-rule="evenodd"/>
          <g transform="matrix(1, 0, 0, 1, 0, -16.62)" filter="url(#Контур_20437)">
            <path id="Контур_20437-2" data-name="Контур 20437" d="M3122.354,485.415l69.581-40.6c-.45,29.267,7.487,38.118,17.161,48.27,3.972,4.165,9.864,6.98,13.032,13.984,16.211,35.836,16.967,106.754,25.107,150.008,5.906,31.39,10.75,51.415,18.144,81.342.4,1.617-.015,1.6.4,3.279,0,0-6.309-.041-22.777,0s-43.1.166-43.1.166-86.017-.226-123.441,0c5.937-33.177,7.994-56.208,18.218-85.423,12.136-34.678,31.73-70.581,38.774-109.963C3136.055,531.944,3134.093,500.71,3122.354,485.415Z" transform="translate(-3005.71 -351.07)" fill="#ca3750" fill-rule="evenodd"/>
          </g>
          <path id="Контур_20438" data-name="Контур 20438" d="M3031.151,445.665c.608,0,2.769,9.508,5.4,18.116,1.289,4.21,3.483,8.782,4.133,10.806,2.859,8.9,5.155,16.118,6.038,20.7l-5.444.328s-1.542-14.985-6.951-21.98c-1.638-2.116-3.859-2.673-4.766-4.45C3026.727,463.63,3029.245,459.331,3031.151,445.665Z" transform="translate(-3009.235 -367.633)" fill="#00a7cf" fill-rule="evenodd"/>
          <path id="Контур_20439" data-name="Контур 20439" d="M3047.584,498.665l-6.43-4.244-.812-2.294s4.552-.365,5.519-.232C3046.542,493.593,3046.26,494.664,3047.584,498.665Z" transform="translate(-3008.37 -364.244)" fill="#10758e" fill-rule="evenodd"/>
          <path id="Контур_20440" data-name="Контур 20440" d="M3042.757,475.43s-2.058,1.45-4.369-4.265c-1.309-3.238-2.4-8.152-3.6-12.409-1.788-6.3-3.468-11.611-3.468-11.611l-.933-8.568a4.112,4.112,0,0,1,1.562-.042c.643.088,2.071,6.813,4.137,14.012C3038.8,462.014,3042.252,472.809,3042.757,475.43Z" transform="translate(-3009.081 -368.158)" fill="#1f2024" fill-rule="evenodd"/>
          <g transform="matrix(1, 0, 0, 1, 0, -16.62)" filter="url(#Контур_20441)">
            <path id="Контур_20441-2" data-name="Контур 20441" d="M3153.413,423.368c-1.26-2.163-1.79-3.312-15.97-3.864-4.091.251-13.087-8.431-12.323-13.42,0,0,8.135-8.762,8.926-8.655.527.071,19.218-4.39,20.775,1.552C3156.511,405.424,3161.024,436.436,3153.413,423.368Z" transform="translate(-3002.15 -354.65)" fill="#1f2024" fill-rule="evenodd"/>
          </g>
          <path id="Контур_20442" data-name="Контур 20442" d="M3146.62,494.823l1.424,4.352,4.633-.009-3.754,2.681,1.441,4.346-3.745-2.695-3.743,2.695,1.44-4.346-3.754-2.681,4.635.009Z" transform="translate(-3001.012 -364.033)" fill="#fff" fill-rule="evenodd"/>
          <path id="Контур_20443" data-name="Контур 20443" d="M3175.462,458.7l1.424,4.352,4.633-.009-3.754,2.681,1.441,4.346-3.744-2.7-3.744,2.7,1.44-4.346-3.754-2.681,4.634.009Z" transform="translate(-2998.9 -366.678)" fill="#fff" fill-rule="evenodd"/>
          <path id="Контур_20444" data-name="Контур 20444" d="M3175.462,490.776l1.424,4.352,4.633-.009-3.754,2.681,1.441,4.346-3.744-2.695-3.744,2.695,1.44-4.346-3.754-2.681,4.634.009Z" transform="translate(-2998.9 -364.329)" fill="#fff" fill-rule="evenodd"/>
          <path id="Контур_20445" data-name="Контур 20445" d="M3154.07,473.062l1.425,4.352,4.634-.009-3.754,2.681,1.44,4.346-3.744-2.7-3.743,2.7,1.44-4.346-3.754-2.681,4.635.009Z" transform="translate(-3000.466 -365.626)" fill="#fff" fill-rule="evenodd"/>
          <path id="Контур_20446" data-name="Контур 20446" d="M3140.685,528.153l1.423,4.352,4.634-.009-3.754,2.681,1.44,4.346-3.744-2.7-3.745,2.7,1.441-4.346-3.754-2.681,4.634.009Z" transform="translate(-3001.447 -361.592)" fill="#fff" fill-rule="evenodd"/>
          <path id="Контур_20447" data-name="Контур 20447" d="M3135.041,560.232l1.423,4.352,4.635-.008-3.754,2.681,1.44,4.346-3.744-2.7-3.744,2.7,1.441-4.346-3.754-2.681,4.634.008Z" transform="translate(-3001.861 -359.243)" fill="#fff" fill-rule="evenodd"/>
          <path id="Контур_20448" data-name="Контур 20448" d="M3123.752,591.2l1.424,4.352,4.634-.009-3.755,2.681,1.44,4.346-3.743-2.7-3.744,2.7,1.44-4.346-3.754-2.681,4.634.009Z" transform="translate(-3002.687 -356.975)" fill="#fff" fill-rule="evenodd"/>
          <path id="Контур_20449" data-name="Контур 20449" d="M3118.107,618.96l1.424,4.352,4.635-.009-3.755,2.681,1.441,4.346-3.744-2.7-3.743,2.7,1.441-4.346-3.755-2.681,4.635.009Z" transform="translate(-3003.1 -354.942)" fill="#fff" fill-rule="evenodd"/>
          <path id="Контур_20450" data-name="Контур 20450" d="M3101.794,638.069l1.423,4.352,4.635-.009-3.755,2.681,1.44,4.346-3.743-2.695-3.743,2.695,1.44-4.346-3.755-2.681,4.635.009Z" transform="translate(-3004.294 -353.543)" fill="#fff" fill-rule="evenodd"/>
          <path id="Контур_20451" data-name="Контур 20451" d="M3112.749,658.256l1.423,4.351,4.634-.008-3.754,2.681,1.44,4.346-3.744-2.7-3.743,2.7,1.439-4.346-3.754-2.681,4.634.008Z" transform="translate(-3003.492 -352.064)" fill="#fff" fill-rule="evenodd"/>
          <path id="Контур_20452" data-name="Контур 20452" d="M3207.853,505.418l1.425,4.352,4.634-.009-3.755,2.681,1.441,4.347-3.745-2.7-3.743,2.7,1.441-4.347-3.755-2.681,4.633.009Z" transform="translate(-2996.529 -363.257)" fill="#fff" fill-rule="evenodd"/>
          <path id="Контур_20453" data-name="Контур 20453" d="M3211.991,533.45l1.423,4.351,4.634-.008-3.754,2.681,1.441,4.346-3.744-2.695-3.744,2.695,1.44-4.346-3.755-2.681,4.635.008Z" transform="translate(-2996.225 -361.204)" fill="#fff" fill-rule="evenodd"/>
          <path id="Контур_20454" data-name="Контур 20454" d="M3217.635,565.529l1.423,4.352,4.634-.009-3.755,2.681,1.441,4.346-3.743-2.7-3.745,2.7,1.441-4.346-3.754-2.681,4.634.009Z" transform="translate(-2995.812 -358.855)" fill="#fff" fill-rule="evenodd"/>
          <path id="Контур_20455" data-name="Контур 20455" d="M3218.436,599.9l1.424,4.352,4.634-.009-3.754,2.681,1.441,4.347-3.745-2.7-3.743,2.7,1.441-4.347-3.755-2.681,4.634.009Z" transform="translate(-2995.753 -356.338)" fill="#fff" fill-rule="evenodd"/>
          <path id="Контур_20456" data-name="Контур 20456" d="M3226.276,634.271l1.423,4.352,4.635-.009-3.755,2.681,1.441,4.346-3.745-2.7-3.743,2.7,1.441-4.346-3.755-2.681,4.634.009Z" transform="translate(-2995.179 -353.821)" fill="#fff" fill-rule="evenodd"/>
          <path id="Контур_20457" data-name="Контур 20457" d="M3213.74,660.986l1.423,4.352,4.635-.009-3.755,2.681,1.441,4.346-3.743-2.7-3.743,2.7,1.44-4.346-3.754-2.681,4.634.009Z" transform="translate(-2996.097 -351.865)" fill="#fff" fill-rule="evenodd"/>
          <path id="Контур_20458" data-name="Контур 20458" d="M3231.921,671.58l1.423,4.352,4.634-.008-3.754,2.681,1.44,4.346-3.744-2.7-3.744,2.7,1.439-4.346-3.754-2.681,4.634.008Z" transform="translate(-2994.765 -351.088)" fill="#fff" fill-rule="evenodd"/>
          <path id="Контур_20459" data-name="Контур 20459" d="M3229.726,703.66l1.423,4.352,4.634-.009-3.754,2.681,1.44,4.346-3.743-2.7-3.744,2.7,1.44-4.346L3223.668,708l4.634.009Z" transform="translate(-2994.927 -348.739)" fill="#fff" fill-rule="evenodd"/>
          <path id="Контур_20460" data-name="Контур 20460" d="M3217.635,684.238l1.423,4.352,4.634-.009-3.755,2.681,1.441,4.346-3.743-2.7-3.745,2.7,1.441-4.346-3.754-2.681,4.634.009Z" transform="translate(-2995.812 -350.162)" fill="#fff" fill-rule="evenodd"/>
          <path id="Контур_20461" data-name="Контур 20461" d="M3190.825,678.941l1.424,4.352,4.634-.008-3.755,2.681,1.44,4.346-3.744-2.7-3.743,2.7,1.44-4.346-3.754-2.681,4.634.008Z" transform="translate(-2997.775 -350.55)" fill="#fff" fill-rule="evenodd"/>
          <path id="Контур_20462" data-name="Контур 20462" d="M3171.008,676.466l1.424,4.352,4.635-.008-3.756,2.681,1.441,4.346-3.744-2.7-3.743,2.7,1.44-4.346-3.755-2.681,4.634.008Z" transform="translate(-2999.225 -350.731)" fill="#fff" fill-rule="evenodd"/>
          <path id="Контур_20463" data-name="Контур 20463" d="M3148.107,684.6l1.423,4.352,4.634-.009-3.754,2.681,1.44,4.347-3.743-2.7-3.745,2.7,1.441-4.347-3.754-2.681,4.634.009Z" transform="translate(-3000.903 -350.135)" fill="#fff" fill-rule="evenodd"/>
          <path id="Контур_20464" data-name="Контур 20464" d="M3123.752,681.764l1.424,4.352,4.634-.009-3.755,2.681,1.44,4.347-3.743-2.7-3.744,2.7,1.44-4.347-3.754-2.681,4.634.009Z" transform="translate(-3002.687 -350.343)" fill="#fff" fill-rule="evenodd"/>
          <path id="Контур_20465" data-name="Контур 20465" d="M3099.4,678.931l1.423,4.352,4.634-.008-3.754,2.681,1.44,4.347-3.744-2.695-3.743,2.695,1.44-4.347-3.755-2.681,4.634.008Z" transform="translate(-3004.471 -350.55)" fill="#fff" fill-rule="evenodd"/>
          <path id="Контур_20466" data-name="Контур 20466" d="M3106.819,699.605l1.423,4.352,4.634-.009-3.754,2.681,1.44,4.346-3.744-2.7-3.744,2.7,1.44-4.346-3.754-2.681,4.634.009Z" transform="translate(-3003.927 -349.036)" fill="#fff" fill-rule="evenodd"/>
          <path id="Контур_20467" data-name="Контур 20467" d="M3133.21,704.9l1.423,4.352,4.634-.009-3.755,2.681,1.441,4.346-3.743-2.7-3.745,2.7,1.441-4.346-3.754-2.681,4.634.009Z" transform="translate(-3001.994 -348.648)" fill="#fff" fill-rule="evenodd"/>
          <path id="Контур_20468" data-name="Контур 20468" d="M3089.842,707.608l1.424,4.352,4.634-.009-3.754,2.681,1.441,4.346-3.744-2.7-3.744,2.7,1.44-4.346-3.755-2.681,4.635.009Z" transform="translate(-3005.169 -348.45)" fill="#fff" fill-rule="evenodd"/>
          <path id="Контур_20469" data-name="Контур 20469" d="M3159.6,706.571l1.424,4.351,4.634-.008-3.754,2.681,1.44,4.346-3.744-2.7-3.744,2.7,1.44-4.346-3.754-2.681,4.634.008Z" transform="translate(-3000.062 -348.526)" fill="#fff" fill-rule="evenodd"/>
          <path id="Контур_20470" data-name="Контур 20470" d="M3183.284,700.842l1.423,4.352,4.635-.009-3.754,2.681,1.441,4.346-3.745-2.7-3.743,2.7,1.44-4.346-3.754-2.681,4.634.009Z" transform="translate(-2998.327 -348.946)" fill="#fff" fill-rule="evenodd"/>
          <path id="Контур_20471" data-name="Контур 20471" d="M3202.45,708.958l1.424,4.352,4.633-.008-3.754,2.681,1.44,4.346-3.744-2.7-3.743,2.7,1.44-4.346-3.754-2.681,4.634.008Z" transform="translate(-2996.924 -348.352)" fill="#fff" fill-rule="evenodd"/>
          <g transform="matrix(1, 0, 0, 1, 0, -16.62)" filter="url(#Контур_20472)">
            <path id="Контур_20472-2" data-name="Контур 20472" d="M3189.795,501.371c5.1,0,22.7,16.834,29.556,49.861,7.267,35.028-1.541,97.764,5.721,127.126-27.528-4.616-90.259,5.72-115.049,8.263,1.986-11.1,8.418-20.622,10.806-30.511,9.654-39.971,17.389-71.092,23.3-92.24C3151.586,537.167,3167.546,514.809,3189.795,501.371Z" transform="translate(-3003.25 -346.93)" fill="#ef4864" fill-rule="evenodd"/>
          </g>
          <path id="Контур_20473" data-name="Контур 20473" d="M3164.454,681.086l5.441-1.118-3.192-12.634s-3.937.459-4.9.592C3160.312,668.131,3163.856,678.8,3164.454,681.086Z" transform="translate(-2999.558 -351.497)" fill="#10758e" fill-rule="evenodd"/>
          <path id="Контур_20474" data-name="Контур 20474" d="M3193.215,717.1s-11.413-15.055-18.635-27.262a56.48,56.48,0,0,1-5.875-14.426s-5.782.115-5.575,1.066C3166.141,690.211,3179.264,711.322,3193.215,717.1Z" transform="translate(-2999.36 -350.808)" fill="#00a7cf" fill-rule="evenodd"/>
          <path id="Контур_20475" data-name="Контур 20475" d="M3183.625,507.515l1.423,4.352,4.635-.008-3.755,2.681,1.44,4.346-3.743-2.7-3.743,2.7,1.44-4.346-3.755-2.681,4.635.008Z" transform="translate(-2998.302 -363.103)" fill="#fff" fill-rule="evenodd"/>
          <path id="Контур_20476" data-name="Контур 20476" d="M3167.852,530l1.424,4.352,4.634-.009-3.755,2.681,1.441,4.346-3.744-2.7-3.744,2.7,1.44-4.346-3.753-2.681,4.634.009Z" transform="translate(-2999.458 -361.457)" fill="#fff" fill-rule="evenodd"/>
          <path id="Контур_20477" data-name="Контур 20477" d="M3193.115,533.45l1.423,4.351,4.634-.008-3.754,2.681,1.44,4.346-3.743-2.695-3.745,2.695,1.441-4.346-3.754-2.681,4.635.008Z" transform="translate(-2997.607 -361.204)" fill="#fff" fill-rule="evenodd"/>
          <path id="Контур_20478" data-name="Контур 20478" d="M3176.339,560.232l1.423,4.352,4.634-.009-3.754,2.681,1.44,4.346-3.742-2.7-3.745,2.7,1.441-4.346-3.755-2.681,4.634.009Z" transform="translate(-2998.836 -359.243)" fill="#fff" fill-rule="evenodd"/>
          <path id="Контур_20479" data-name="Контур 20479" d="M3151.951,567.27l1.424,4.352,4.634-.009-3.755,2.681,1.44,4.346-3.743-2.7-3.744,2.7,1.44-4.346-3.754-2.681,4.635.009Z" transform="translate(-3000.622 -358.727)" fill="#fff" fill-rule="evenodd"/>
          <path id="Контур_20480" data-name="Контур 20480" d="M3118.107,522.855l1.424,4.352,4.635-.009-3.755,2.681,1.441,4.347-3.744-2.7-3.743,2.7,1.441-4.347-3.755-2.681,4.635.009Z" transform="translate(-3003.1 -361.98)" fill="#fff" fill-rule="evenodd"/>
          <path id="Контур_20481" data-name="Контур 20481" d="M3112.463,551.758l1.424,4.351,4.633-.008-3.754,2.681,1.44,4.346-3.744-2.7-3.744,2.7,1.441-4.346-3.754-2.681,4.635.008Z" transform="translate(-3003.514 -359.863)" fill="#fff" fill-rule="evenodd"/>
          <path id="Контур_20482" data-name="Контур 20482" d="M3073.6,591.2l1.424,4.352,4.634-.009-3.754,2.681,1.441,4.346-3.744-2.7-3.744,2.7,1.44-4.346-3.754-2.681,4.634.009Z" transform="translate(-3006.36 -356.975)" fill="#fff" fill-rule="evenodd"/>
          <path id="Контур_20483" data-name="Контур 20483" d="M3098.678,585.908l1.423,4.351,4.634-.008-3.754,2.681,1.44,4.346-3.743-2.7-3.744,2.7,1.44-4.346-3.754-2.681,4.634.008Z" transform="translate(-3004.523 -357.362)" fill="#fff" fill-rule="evenodd"/>
          <path id="Контур_20484" data-name="Контур 20484" d="M3064.8,565.53l1.423,4.352,4.634-.009-3.754,2.681,1.44,4.347-3.743-2.7-3.743,2.7,1.44-4.347-3.754-2.681,4.634.009Z" transform="translate(-3007.004 -358.855)" fill="#fff" fill-rule="evenodd"/>
          <path id="Контур_20485" data-name="Контур 20485" d="M3067.96,541.164l1.423,4.352,4.634-.008-3.754,2.681,1.44,4.346-3.743-2.7-3.744,2.7,1.441-4.346-3.755-2.681,4.635.008Z" transform="translate(-3006.772 -360.639)" fill="#fff" fill-rule="evenodd"/>
          <path id="Контур_20486" data-name="Контур 20486" d="M3062.315,518.11l1.423,4.352,4.633-.009-3.754,2.681,1.441,4.346-3.743-2.7-3.745,2.7,1.441-4.346-3.755-2.681,4.635.009Z" transform="translate(-3007.186 -362.327)" fill="#fff" fill-rule="evenodd"/>
          <path id="Контур_20487" data-name="Контур 20487" d="M3048.529,554.935l1.423,4.352,4.634-.009-3.754,2.681,1.44,4.346-3.743-2.7-3.744,2.7,1.441-4.346-3.755-2.681,4.635.009Z" transform="translate(-3008.195 -359.631)" fill="#fff" fill-rule="evenodd"/>
          <path id="Контур_20488" data-name="Контур 20488" d="M3048.171,533.479l1.423,4.352,4.634-.009-3.754,2.681,1.441,4.347-3.743-2.7-3.745,2.7,1.441-4.347-3.754-2.681,4.634.009Z" transform="translate(-3008.222 -361.202)" fill="#fff" fill-rule="evenodd"/>
          <path id="Контур_20489" data-name="Контур 20489" d="M3036.533,511.043l1.423,4.352,4.634-.008-3.755,2.681,1.44,4.346-3.743-2.7-3.744,2.7,1.44-4.346-3.754-2.681,4.633.008Z" transform="translate(-3009.074 -362.845)" fill="#fff" fill-rule="evenodd"/>
          <path id="Контур_20490" data-name="Контур 20490" d="M3023.058,496.073l1.424,4.352,4.633-.009-3.754,2.681,1.44,4.346-3.743-2.7-3.744,2.7,1.44-4.346L3017,500.416l4.634.009Z" transform="translate(-3010.061 -363.941)" fill="#fff" fill-rule="evenodd"/>
          <path id="Контур_20491" data-name="Контур 20491" d="M3025.153,535.866l1.423,4.352,4.635-.008-3.755,2.681,1.441,4.346-3.744-2.7-3.745,2.7,1.441-4.346-3.754-2.681,4.634.008Z" transform="translate(-3009.908 -361.027)" fill="#fff" fill-rule="evenodd"/>
          <path id="Контур_20492" data-name="Контур 20492" d="M3030.8,570.016l1.423,4.352,4.634-.008-3.754,2.681,1.44,4.346-3.743-2.7-3.744,2.7,1.441-4.346-3.754-2.681,4.634.008Z" transform="translate(-3009.494 -358.526)" fill="#fff" fill-rule="evenodd"/>
          <path id="Контур_20493" data-name="Контур 20493" d="M3048.529,587.211l1.423,4.352,4.634-.009-3.754,2.681,1.44,4.346-3.743-2.7-3.744,2.7,1.441-4.346-3.755-2.681,4.635.009Z" transform="translate(-3008.195 -357.267)" fill="#fff" fill-rule="evenodd"/>
          <path id="Контур_20494" data-name="Контур 20494" d="M3093.033,561.973l1.423,4.352,4.634-.008L3095.336,569l1.44,4.346-3.744-2.695-3.744,2.695,1.441-4.346-3.755-2.681,4.634.008Z" transform="translate(-3004.936 -359.115)" fill="#fff" fill-rule="evenodd"/>
          <path id="Контур_20495" data-name="Контур 20495" d="M3090.505,538.038l1.423,4.352,4.635-.008-3.755,2.681,1.44,4.346-3.743-2.7-3.744,2.7,1.441-4.346-3.754-2.681,4.634.008Z" transform="translate(-3005.122 -360.868)" fill="#fff" fill-rule="evenodd"/>
          <path id="Контур_20496" data-name="Контур 20496" d="M3076.084,614.76l1.423,4.352,4.635-.009-3.755,2.681,1.441,4.347-3.744-2.7-3.743,2.7,1.441-4.347-3.754-2.681,4.635.009Z" transform="translate(-3006.177 -355.25)" fill="#fff" fill-rule="evenodd"/>
          <path id="Контур_20497" data-name="Контур 20497" d="M3196.564,580.61l1.424,4.352,4.634-.009-3.754,2.681,1.44,4.346-3.744-2.7-3.743,2.7,1.439-4.346-3.754-2.681,4.634.009Z" transform="translate(-2997.355 -357.75)" fill="#fff" fill-rule="evenodd"/>
          <path id="Контур_20498" data-name="Контур 20498" d="M3171.094,596.5l1.424,4.352,4.634-.008-3.755,2.681,1.44,4.346-3.744-2.7-3.743,2.7,1.441-4.346-3.755-2.681,4.634.008Z" transform="translate(-2999.22 -356.587)" fill="#fff" fill-rule="evenodd"/>
          <path id="Контур_20499" data-name="Контур 20499" d="M3145.624,612.394l1.424,4.352,4.635-.008-3.755,2.68,1.441,4.347-3.745-2.7-3.743,2.7,1.44-4.347-3.754-2.68,4.633.008Z" transform="translate(-3001.085 -355.423)" fill="#fff" fill-rule="evenodd"/>
          <path id="Контур_20500" data-name="Контур 20500" d="M3167.852,639.569l1.424,4.352,4.634-.008-3.755,2.681,1.441,4.346-3.744-2.695-3.744,2.695,1.44-4.346-3.753-2.681,4.634.008Z" transform="translate(-2999.458 -353.433)" fill="#fff" fill-rule="evenodd"/>
          <path id="Контур_20501" data-name="Контур 20501" d="M3200.558,647.763l1.424,4.352,4.634-.009-3.754,2.681,1.44,4.347-3.743-2.7-3.744,2.7,1.44-4.347-3.753-2.681,4.634.009Z" transform="translate(-2997.063 -352.833)" fill="#fff" fill-rule="evenodd"/>
          <path id="Контур_20502" data-name="Контур 20502" d="M3194.913,617.691l1.423,4.352,4.635-.008-3.755,2.681,1.441,4.346-3.745-2.7-3.743,2.7,1.44-4.346-3.754-2.681,4.634.008Z" transform="translate(-2997.475 -355.035)" fill="#fff" fill-rule="evenodd"/>
          <path id="Контур_20503" data-name="Контур 20503" d="M3129.4,650.163l1.424,4.352,4.634-.009-3.755,2.681,1.44,4.347-3.744-2.7-3.743,2.7,1.44-4.347-3.755-2.681,4.634.009Z" transform="translate(-3002.274 -352.657)" fill="#fff" fill-rule="evenodd"/>
        </g>
      </g>
    </g>
    <ellipse id="Эллипс_1347" data-name="Эллипс 1347" cx="4.5" cy="3.5" rx="4.5" ry="3.5" transform="translate(89 238.877)" fill="#ef4864"/>
    <ellipse id="Эллипс_1356" data-name="Эллипс 1356" cx="5" cy="4.5" rx="5" ry="4.5" transform="translate(485 213.877)" fill="#24272d"/>
    <ellipse id="Эллипс_1348" data-name="Эллипс 1348" cx="6.5" cy="7" rx="6.5" ry="7" transform="translate(78 216.877)" fill="#00a7cf"/>
    <path id="Контур_20552" data-name="Контур 20552" d="M5.819,0A5.819,5.819,0,1,1,0,5.819,5.819,5.819,0,0,1,5.819,0Z" transform="translate(492.902 191.971)" fill="#ef4864"/>
    <circle id="Эллипс_1349" data-name="Эллипс 1349" cx="6" cy="6" r="6" transform="translate(101 220.877)" fill="#d1e92a"/>
    <ellipse id="Эллипс_1355" data-name="Эллипс 1355" cx="7" cy="6.5" rx="7" ry="6.5" transform="translate(469 193.877)" fill="#d1e92a"/>
    <ellipse id="Эллипс_1350" data-name="Эллипс 1350" cx="6.5" cy="7" rx="6.5" ry="7" transform="translate(94 199.877)" fill="#24272d"/>
    <path id="Контур_20551" data-name="Контур 20551" d="M6.789,0A6.789,6.789,0,1,1,0,6.789,6.789,6.789,0,0,1,6.789,0Z" transform="translate(477.385 174.514)" fill="#00a7cf"/>
    <ellipse id="Эллипс_1351" data-name="Эллипс 1351" cx="6.5" cy="7" rx="6.5" ry="7" transform="translate(76 187.877)" fill="#ef4864"/>
    <ellipse id="Эллипс_1353" data-name="Эллипс 1353" cx="5.5" cy="6" rx="5.5" ry="6" transform="translate(495 162.877)" fill="#d1e92a"/>
    <circle id="Эллипс_1352" data-name="Эллипс 1352" cx="6" cy="6" r="6" transform="translate(111 189.877)" fill="#00a7cf"/>
    <circle id="Эллипс_1358" data-name="Эллипс 1358" cx="6" cy="6" r="6" transform="translate(460 164.877)" fill="#24272d"/>
  </g>
</svg>
