<svg xmlns="http://www.w3.org/2000/svg" width="28.767" height="28.767" viewBox="0 0 28.767 28.767"><g transform="translate(0 0)"><path d="M24.554,4.213A14.384,14.384,0,0,0,4.213,24.554a14.389,14.389,0,0,0,17.613,2.14,1.124,1.124,0,1,0-1.164-1.922,12.244,12.244,0,1,1,3.8-3.653,1.124,1.124,0,1,0,1.868,1.249A14.348,14.348,0,0,0,24.554,4.213Z" transform="translate(0 0)" fill="#24272d"/></g><g transform="translate(8.81 4.27)"><path d="M162.377,76a1.124,1.124,0,0,0-1.124,1.124v8.524l-4.121,4.121a1.124,1.124,0,0,0,1.589,1.589l4.45-4.45a1.123,1.123,0,0,0,.329-.795v-8.99A1.124,1.124,0,0,0,162.377,76Z" transform="translate(-156.804 -76)" fill="#24272d"/></g></svg>