<svg xmlns="http://www.w3.org/2000/svg" xmlns:xlink="http://www.w3.org/1999/xlink" width="282" height="160" viewBox="0 0 282 160">
  <defs>
    <filter id="Контур_20507" x="155.087" y="44.792" width="24.821" height="23.961" filterUnits="userSpaceOnUse">
      <feOffset dy="1" input="SourceAlpha"/>
      <feGaussianBlur stdDeviation="0.5" result="blur"/>
      <feFlood flood-opacity="0.161"/>
      <feComposite operator="in" in2="blur"/>
      <feComposite in="SourceGraphic"/>
    </filter>
    <filter id="Контур_20532" x="136.072" y="74.133" width="75.651" height="58.562" filterUnits="userSpaceOnUse">
      <feOffset dy="3" input="SourceAlpha"/>
      <feGaussianBlur stdDeviation="3" result="blur-2"/>
      <feFlood flood-opacity="0.161"/>
      <feComposite operator="in" in2="blur-2"/>
      <feComposite in="SourceGraphic"/>
    </filter>
    <filter id="Контур_20434" x="94.682" y="43.659" width="56.15" height="54.821" filterUnits="userSpaceOnUse">
      <feOffset dy="3" input="SourceAlpha"/>
      <feGaussianBlur stdDeviation="3" result="blur-3"/>
      <feFlood flood-opacity="0.161"/>
      <feComposite operator="in" in2="blur-3"/>
      <feComposite in="SourceGraphic"/>
    </filter>
    <filter id="Контур_20437" x="88.986" y="61.546" width="69.275" height="98.454" filterUnits="userSpaceOnUse">
      <feOffset dx="-1" input="SourceAlpha"/>
      <feGaussianBlur stdDeviation="3" result="blur-4"/>
      <feFlood flood-opacity="0.161"/>
      <feComposite operator="in" in2="blur-4"/>
      <feComposite in="SourceGraphic"/>
    </filter>
    <filter id="Контур_20441" x="110.116" y="55.325" width="14.835" height="14.304" filterUnits="userSpaceOnUse">
      <feOffset dy="2" input="SourceAlpha"/>
      <feGaussianBlur stdDeviation="1" result="blur-5"/>
      <feFlood flood-opacity="0.161"/>
      <feComposite operator="in" in2="blur-5"/>
      <feComposite in="SourceGraphic"/>
    </filter>
    <filter id="Контур_20472" x="99.74" y="80.986" width="49.16" height="68.174" filterUnits="userSpaceOnUse">
      <feOffset dy="3" input="SourceAlpha"/>
      <feGaussianBlur stdDeviation="3" result="blur-6"/>
      <feFlood flood-opacity="0.161"/>
      <feComposite operator="in" in2="blur-6"/>
      <feComposite in="SourceGraphic"/>
    </filter>
  </defs>
  <g id="Сгруппировать_9095" data-name="Сгруппировать 9095" transform="translate(4688 -4709)">
    <rect id="Прямоугольник_3460" data-name="Прямоугольник 3460" width="282" height="151" rx="10" transform="translate(-4688 4709)" fill="#f3f4f9"/>
    <g id="Сгруппировать_9094" data-name="Сгруппировать 9094" transform="translate(-4669.872 4595.706)">
      <g id="Сгруппировать_4749" data-name="Сгруппировать 4749" transform="translate(61.694 158.586)">
        <g id="Сгруппировать_4746" data-name="Сгруппировать 4746" transform="translate(57.914)">
          <path id="Контур_20504" data-name="Контур 20504" d="M3380.061,421.482c.394.539.9.977,1.292,1.516-.206,1.571-.866,2.794-1.072,4.364-.227,1.73-.11,3.91-.337,5.641l-2.206.443c.429-2.207,1.019-4,1.448-6.206C3379.531,425.46,3379.716,423.263,3380.061,421.482Z" transform="translate(-3350.402 -402.884)" fill="#10758e" fill-rule="evenodd"/>
          <path id="Контур_20505" data-name="Контур 20505" d="M3290.61,535.519c-7.762-.008-12.283-46.269,4.833-66.828,5.268-6.328,11.924-10.042,13.7-9.019,1.276.733,5.673-.291,6.439.433,1.588,1.5,6.451,3.372,7.584,5.734,5.817,12.121,10.761,21.774,8.866,35.206-.586,4.156,1.573,7.57,1.2,17.044l-.679,17.472Z" transform="translate(-3283.697 -429.853)" fill="#a9bd24" fill-rule="evenodd"/>
          <path id="Контур_20506" data-name="Контур 20506" d="M3389.021,401.681c-2.107,2.071-5.867,1.285-6.583.313s-.969-.666-1.16-1.358c-.234-.023-.844.186-1.107-.142s-.442-1.746-.1-2.085,1.414.193,1.613.131c.086-1.119-.2-4.052,1.253-5.482s5.6-.465,7.128,1.433S3391.127,399.61,3389.021,401.681Z" transform="translate(-3351.923 -382.237)" fill="#00a7cf" fill-rule="evenodd"/>
          <g transform="matrix(1, 0, 0, 1, -137.74, -45.29)" filter="url(#Контур_20507)">
            <path id="Контур_20507-2" data-name="Контур 20507" d="M3348.912,362.155c.171-.429,1.581-.6,2.872-.087,1.087.435-.278-2.046,1.033-2.668.663-.314,1.734,1.1,2.238.861,1.143-.55,1.463-2.207,2.152-2.5.221-.093.789-.37,1.033,0,.539.818.623,1.869,1.571,1.734,1.2-.172,2.022-2.291,3.533-1.963,1.421.308.99,2.113,1.18,2.726.251.811,1.006.436,2.841.6.947.086,1.217,1.414,1.033,2.066-.189.669-1.035,1.2-1.118,1.722-.21,1.3,2.539,1.509,3.012,2.41.192.366.1,1.21-.861,1.721-.546.291-1.119-.254-2.238.172-.5.189-.508.644-.947.688a3.316,3.316,0,0,1-1.463-.43c-3.9-2.441-1.437,2.79-3.185,3.271-.391.107-1.187.016-1.463.258-.3.264-.43,1.378-.43,1.378-.775-.423-2.668.762-1.636,1.549.3.23,1.075.129,1.033.172-.48.479.082,3.426-2.441,2.409-.273-.11-1.6-2.8-2.385-2.151-.668.551-1.193,1.417-1.888,1.636-3.57,1.125-1.4-4.156-1.55-4.821-.3-1.372-2.01-2.252-2.163-2.581a1.583,1.583,0,0,1,.7-1.981c1.019-.5,2.49-.335,1.26-1.72C3349.333,365.166,3348.155,364.051,3348.912,362.155Z" transform="translate(-3191.96 -312.21)" fill="#1f2024" fill-rule="evenodd"/>
          </g>
          <path id="Контур_20508" data-name="Контур 20508" d="M3483.97,423.222c-.215,0-.976,3.354-1.906,6.391-.454,1.485-1.228,3.1-1.457,3.812a46.516,46.516,0,0,0-2.054,7.3h1.786a14.223,14.223,0,0,0,.344-1.5c.3-1.575.906-4.51,2.167-6.141.577-.747,1.362-.943,1.681-1.57C3485.531,429.559,3484.643,428.043,3483.97,423.222Z" transform="translate(-3421.881 -404.118)" fill="#00a7cf" fill-rule="evenodd"/>
          <path id="Контур_20509" data-name="Контур 20509" d="M3478.4,480.019l1.524.971.662-2.965a8.391,8.391,0,0,0-1.565-.236C3478.491,477.862,3478.709,478.391,3478.4,480.019Z" transform="translate(-3421.801 -442.82)" fill="#10758e" fill-rule="evenodd"/>
          <path id="Контур_20510" data-name="Контур 20510" d="M3483.024,426.925s.727.511,1.541-1.5c.462-1.142.845-2.876,1.271-4.378.631-2.221,1.223-4.1,1.223-4.1.131-1.2.924-3.194-.222-3.037-.227.031-.731,2.4-1.459,4.943C3484.42,422.192,3483.2,426,3483.024,426.925Z" transform="translate(-3425.084 -397.506)" fill="#1f2024" fill-rule="evenodd"/>
          <path id="Контур_20511" data-name="Контур 20511" d="M3327.586,491.434a2.036,2.036,0,1,0-2.036-2.036A2.04,2.04,0,0,0,3327.586,491.434Z" transform="translate(-3313.384 -449.614)" fill="#1f2024" fill-rule="evenodd"/>
          <path id="Контур_20512" data-name="Контур 20512" d="M3310.973,522.426a2.036,2.036,0,1,0-2.036-2.036A2.04,2.04,0,0,0,3310.973,522.426Z" transform="translate(-3301.6 -471.597)" fill="#1f2024" fill-rule="evenodd"/>
          <path id="Контур_20513" data-name="Контур 20513" d="M3301.973,557.827a2.036,2.036,0,1,0-2.035-2.036A2.04,2.04,0,0,0,3301.973,557.827Z" transform="translate(-3295.217 -496.708)" fill="#1f2024" fill-rule="evenodd"/>
          <path id="Контур_20514" data-name="Контур 20514" d="M3296.5,599.28a2.036,2.036,0,1,0-2.036-2.036A2.04,2.04,0,0,0,3296.5,599.28Z" transform="translate(-3291.334 -526.111)" fill="#1f2024" fill-rule="evenodd"/>
          <path id="Контур_20515" data-name="Контур 20515" d="M3336.058,616.493a2.036,2.036,0,1,0-2.036-2.036A2.04,2.04,0,0,0,3336.058,616.493Z" transform="translate(-3319.394 -538.321)" fill="#1f2024" fill-rule="evenodd"/>
          <path id="Контур_20516" data-name="Контур 20516" d="M3384.828,615.226a2.036,2.036,0,1,0-2.036-2.036A2.039,2.039,0,0,0,3384.828,615.226Z" transform="translate(-3353.987 -537.422)" fill="#1f2024" fill-rule="evenodd"/>
          <path id="Контур_20517" data-name="Контур 20517" d="M3420.8,627.06a2.036,2.036,0,1,0-2.036-2.036A2.04,2.04,0,0,0,3420.8,627.06Z" transform="translate(-3379.504 -545.816)" fill="#1f2024" fill-rule="evenodd"/>
          <path id="Контур_20518" data-name="Контур 20518" d="M3361.583,640.227a2.036,2.036,0,1,0-2.036-2.036A2.039,2.039,0,0,0,3361.583,640.227Z" transform="translate(-3337.499 -555.156)" fill="#1f2024" fill-rule="evenodd"/>
          <path id="Контур_20519" data-name="Контур 20519" d="M3329.052,654.235a2.036,2.036,0,1,0-2.036-2.036A2.04,2.04,0,0,0,3329.052,654.235Z" transform="translate(-3314.425 -565.092)" fill="#1f2024" fill-rule="evenodd"/>
          <path id="Контур_20520" data-name="Контур 20520" d="M3331.453,683.013a2.036,2.036,0,1,0-2.036-2.036A2.04,2.04,0,0,0,3331.453,683.013Z" transform="translate(-3316.127 -585.505)" fill="#1f2024" fill-rule="evenodd"/>
          <path id="Контур_20521" data-name="Контур 20521" d="M3315.044,707.615a2.036,2.036,0,1,0-2.035-2.036A2.04,2.04,0,0,0,3315.044,707.615Z" transform="translate(-3304.489 -602.955)" fill="#1f2024" fill-rule="evenodd"/>
          <path id="Контур_20522" data-name="Контур 20522" d="M3364.022,704.318a2.036,2.036,0,1,0-2.036-2.036A2.04,2.04,0,0,0,3364.022,704.318Z" transform="translate(-3339.229 -600.617)" fill="#1f2024" fill-rule="evenodd"/>
          <path id="Контур_20523" data-name="Контур 20523" d="M3391.833,648.422a2.036,2.036,0,1,0-2.036-2.036A2.04,2.04,0,0,0,3391.833,648.422Z" transform="translate(-3358.955 -560.968)" fill="#1f2024" fill-rule="evenodd"/>
          <path id="Контур_20524" data-name="Контур 20524" d="M3436.4,651.835a2.036,2.036,0,1,0-2.036-2.036A2.04,2.04,0,0,0,3436.4,651.835Z" transform="translate(-3390.567 -563.39)" fill="#1f2024" fill-rule="evenodd"/>
          <path id="Контур_20525" data-name="Контур 20525" d="M3413.8,665.842a2.036,2.036,0,1,0-2.036-2.036A2.04,2.04,0,0,0,3413.8,665.842Z" transform="translate(-3374.535 -573.325)" fill="#1f2024" fill-rule="evenodd"/>
          <path id="Контур_20526" data-name="Контур 20526" d="M3431.111,701.5a2.036,2.036,0,1,0-2.036-2.036A2.04,2.04,0,0,0,3431.111,701.5Z" transform="translate(-3386.817 -598.619)" fill="#1f2024" fill-rule="evenodd"/>
          <path id="Контур_20527" data-name="Контур 20527" d="M3372.769,673.486a2.036,2.036,0,1,0-2.036-2.036A2.04,2.04,0,0,0,3372.769,673.486Z" transform="translate(-3345.434 -578.747)" fill="#1f2024" fill-rule="evenodd"/>
          <path id="Контур_20528" data-name="Контур 20528" d="M3399.789,693.607a2.036,2.036,0,1,0-2.036-2.036A2.04,2.04,0,0,0,3399.789,693.607Z" transform="translate(-3364.599 -593.019)" fill="#1f2024" fill-rule="evenodd"/>
          <path id="Контур_20529" data-name="Контур 20529" d="M3296.522,668.243a2.036,2.036,0,1,0-2.036-2.036A2.04,2.04,0,0,0,3296.522,668.243Z" transform="translate(-3291.35 -575.028)" fill="#1f2024" fill-rule="evenodd"/>
          <path id="Контур_20530" data-name="Контур 20530" d="M3304.487,631.339a2.036,2.036,0,1,0-2.036-2.036A2.04,2.04,0,0,0,3304.487,631.339Z" transform="translate(-3297 -548.851)" fill="#1f2024" fill-rule="evenodd"/>
          <path id="Контур_20531" data-name="Контур 20531" d="M3431.111,595.261a2.036,2.036,0,1,0-2.036-2.036A2.04,2.04,0,0,0,3431.111,595.261Z" transform="translate(-3386.817 -523.26)" fill="#1f2024" fill-rule="evenodd"/>
          <g transform="matrix(1, 0, 0, 1, -137.74, -45.29)" filter="url(#Контур_20532)">
            <path id="Контур_20532-2" data-name="Контур 20532" d="M3339.782,483.93c6.916-13.915,32.5-2.864,25.651,6.886-2.915,4.148-8.045,12.171-13.014,16.626-9.433,8.459-50.839,23.344-42.341-11.725,1.792-7.392,6.929-17.5,17.135-18.33C3331.353,477.051,3334.462,494.633,3339.782,483.93Z" transform="translate(-3163.86 -397.23)" fill="#d1e92a" fill-rule="evenodd"/>
          </g>
          <circle id="Эллипс_1345" data-name="Эллипс 1345" cx="1.753" cy="1.753" r="1.753" transform="translate(22.092 36.778)" fill="#1f2024"/>
          <path id="Контур_20533" data-name="Контур 20533" d="M3334.3,509.789a1.75,1.75,0,1,0-1.75-1.75A1.753,1.753,0,0,0,3334.3,509.789Z" transform="translate(-3318.353 -463.039)" fill="#1f2024" fill-rule="evenodd"/>
          <circle id="Эллипс_1346" data-name="Эллипс 1346" cx="1.753" cy="1.753" r="1.753" transform="translate(27.86 44.476)" fill="#1f2024"/>
          <path id="Контур_20534" data-name="Контур 20534" d="M3361.583,536.844a2.036,2.036,0,1,0-2.036-2.036A2.039,2.039,0,0,0,3361.583,536.844Z" transform="translate(-3337.499 -481.824)" fill="#1f2024" fill-rule="evenodd"/>
          <path id="Контур_20535" data-name="Контур 20535" d="M3384.828,564.831a2.036,2.036,0,1,0-2.036-2.036A2.039,2.039,0,0,0,3384.828,564.831Z" transform="translate(-3353.987 -501.676)" fill="#1f2024" fill-rule="evenodd"/>
          <path id="Контур_20536" data-name="Контур 20536" d="M3333.606,555.593a2.036,2.036,0,1,0-2.036-2.036A2.04,2.04,0,0,0,3333.606,555.593Z" transform="translate(-3317.654 -495.123)" fill="#1f2024" fill-rule="evenodd"/>
          <path id="Контур_20537" data-name="Контур 20537" d="M3369.992,595.261a2.036,2.036,0,1,0-2.035-2.036A2.04,2.04,0,0,0,3369.992,595.261Z" transform="translate(-3343.464 -523.26)" fill="#1f2024" fill-rule="evenodd"/>
          <path id="Контур_20538" data-name="Контур 20538" d="M3329.052,586.4a2.036,2.036,0,1,0-2.036-2.036A2.04,2.04,0,0,0,3329.052,586.4Z" transform="translate(-3314.425 -516.975)" fill="#1f2024" fill-rule="evenodd"/>
          <path id="Контур_20539" data-name="Контур 20539" d="M3413.8,579.166a2.036,2.036,0,1,0-2.036-2.036A2.04,2.04,0,0,0,3413.8,579.166Z" transform="translate(-3374.535 -511.844)" fill="#1f2024" fill-rule="evenodd"/>
          <path id="Контур_20540" data-name="Контур 20540" d="M3442.313,561.8a2.036,2.036,0,1,0-2.036-2.036A2.04,2.04,0,0,0,3442.313,561.8Z" transform="translate(-3394.761 -499.527)" fill="#1f2024" fill-rule="evenodd"/>
          <path id="Контур_20541" data-name="Контур 20541" d="M3425.156,500.7a2.036,2.036,0,1,0-2.036-2.036A2.04,2.04,0,0,0,3425.156,500.7Z" transform="translate(-3382.593 -456.183)" fill="#1f2024" fill-rule="evenodd"/>
          <path id="Контур_20542" data-name="Контур 20542" d="M3398.837,494.373a2.036,2.036,0,1,0-2.036-2.036A2.039,2.039,0,0,0,3398.837,494.373Z" transform="translate(-3363.924 -451.698)" fill="#1f2024" fill-rule="evenodd"/>
          <path id="Контур_20543" data-name="Контур 20543" d="M3388.792,469.56a2.036,2.036,0,1,0-2.036-2.036A2.04,2.04,0,0,0,3388.792,469.56Z" transform="translate(-3356.799 -434.098)" fill="#1f2024" fill-rule="evenodd"/>
          <path id="Контур_20544" data-name="Контур 20544" d="M3360.759,466.716a2.036,2.036,0,1,0-2.036-2.036A2.04,2.04,0,0,0,3360.759,466.716Z" transform="translate(-3336.914 -432.081)" fill="#1f2024" fill-rule="evenodd"/>
          <path id="Контур_20545" data-name="Контур 20545" d="M3436.4,534.137a2.036,2.036,0,1,0-2.036-2.036A2.04,2.04,0,0,0,3436.4,534.137Z" transform="translate(-3390.567 -479.904)" fill="#1f2024" fill-rule="evenodd"/>
          <path id="Контур_20546" data-name="Контур 20546" d="M3471.052,536.434a2.036,2.036,0,1,0-2.036-2.036A2.04,2.04,0,0,0,3471.052,536.434Z" transform="translate(-3415.148 -481.533)" fill="#1f2024" fill-rule="evenodd"/>
          <path id="Контур_20547" data-name="Контур 20547" d="M3463.326,512.446a2.036,2.036,0,1,0-2.036-2.036A2.04,2.04,0,0,0,3463.326,512.446Z" transform="translate(-3409.667 -464.518)" fill="#1f2024" fill-rule="evenodd"/>
          <path id="Контур_20548" data-name="Контур 20548" d="M3493.279,505.442a2.036,2.036,0,1,0-2.036-2.036A2.04,2.04,0,0,0,3493.279,505.442Z" transform="translate(-3430.914 -459.55)" fill="#1f2024" fill-rule="evenodd"/>
          <path id="Контур_20549" data-name="Контур 20549" d="M3456.322,487.369a2.036,2.036,0,1,0-2.036-2.036A2.04,2.04,0,0,0,3456.322,487.369Z" transform="translate(-3404.699 -446.73)" fill="#1f2024" fill-rule="evenodd"/>
          <path id="Контур_20550" data-name="Контур 20550" d="M3405.271,534.137a2.036,2.036,0,1,0-2.036-2.036A2.04,2.04,0,0,0,3405.271,534.137Z" transform="translate(-3368.488 -479.904)" fill="#1f2024" fill-rule="evenodd"/>
        </g>
        <g id="Сгруппировать_4748" data-name="Сгруппировать 4748" transform="translate(0 4.367)">
          <g id="Сгруппировать_4747" data-name="Сгруппировать 4747" transform="translate(0 0)">
            <path id="Контур_20433" data-name="Контур 20433" d="M3012.941,481.5c1.826,0,20.94,13.9,22.208,13.428,5.048-1.894,9.8-7.12,10.076-5.686,3.716,10.887-5.772,31.3-9.4,35.688-.677.641-5.42,1.031-10.146-1.252C3010.529,516.354,3007.738,496.013,3012.941,481.5Z" transform="translate(-3010.534 -449.947)" fill="#ef4864" fill-rule="evenodd"/>
            <g transform="matrix(1, 0, 0, 1, -79.82, -49.66)" filter="url(#Контур_20434)">
              <path id="Контур_20434-2" data-name="Контур 20434" d="M3092.858,381.7c.172-.43,2.712-1.264,3.615-2.754,1.4-2.3,1.258-3.787,2.152-4.218,2.324-1.119,3.583.431,6.266-.12,2.925-.6,3.958-1.924,5.47-1.6,2.967.644,2.036,4.04,4.188,5.5,2.292,1.558,5.817,1.126,6.628,2.927.579,1.286.117,1.828-.258,3.271a2.488,2.488,0,0,0,.866,3.141c1.285,1.163,2.661,1.192,3.782,1.938,1.358.9,2.132,2.328,1.722,2.84a10.139,10.139,0,0,1-.344,1.033c-.454.783-1.486,1.56-1.033,2.41,1.067,2,6.989,3.964,4.046,6.456-.868.735-2.2,1.478-2.324,2.755-.082.862-.119,4.313-.774,4.476-1.852.459-6.385-7.106-9.9-9.9-3-2.386-6.789-.545-6.886-.6-.88.605-3.657.53-5.742.53-1.192,0-1.558-4.2-4.157-5.006a9.906,9.906,0,0,1-2.841-.775,2.869,2.869,0,0,1-1.291-1.291c-.834-1.791.572-4.251-1.463-6.542C3093.278,384.707,3092.1,383.594,3092.858,381.7Z" transform="translate(-2988.94 -323.3)" fill="#1f2024" fill-rule="evenodd"/>
            </g>
            <path id="Контур_20435" data-name="Контур 20435" d="M3121.486,405.389a5.467,5.467,0,0,1,4.841,8.014,1.336,1.336,0,0,1-1.744,1.958,5.468,5.468,0,1,1-3.1-9.972Z" transform="translate(-3085.354 -395.962)" fill="#00a7cf" fill-rule="evenodd"/>
            <path id="Контур_20436" data-name="Контур 20436" d="M3141.8,445.836l1.286-1.022,1.285,5.662-1.285.88Z" transform="translate(-3103.644 -423.926)" fill="#10758e" fill-rule="evenodd"/>
            <g transform="matrix(1, 0, 0, 1, -79.82, -49.66)" filter="url(#Контур_20437)">
              <path id="Контур_20437-2" data-name="Контур 20437" d="M3088.894,455.81l18.845-11c-.122,7.927,2.028,10.324,4.648,13.074,1.076,1.128,2.672,1.891,3.53,3.788,4.391,9.706,4.6,28.914,6.8,40.629,1.6,8.5,2.911,13.925,4.914,22.031.108.438,0,.433.109.888,0,0-1.709-.011-6.169,0s-11.673.045-11.673.045-23.3-.061-33.433,0c1.608-8.986,2.165-15.224,4.934-23.136,3.287-9.392,8.594-19.116,10.5-29.783C3092.6,468.412,3092.073,459.952,3088.894,455.81Z" transform="translate(-2977.48 -374.27)" fill="#ca3750" fill-rule="evenodd"/>
            </g>
            <path id="Контур_20438" data-name="Контур 20438" d="M3029.065,445.665c.165,0,.75,2.575,1.463,4.907.349,1.14.943,2.379,1.119,2.927.774,2.41,1.4,4.365,1.636,5.606l-1.475.089s-.418-4.059-1.883-5.953c-.444-.573-1.045-.724-1.291-1.205C3027.866,450.531,3028.548,449.366,3029.065,445.665Z" transform="translate(-3023.129 -424.53)" fill="#00a7cf" fill-rule="evenodd"/>
            <path id="Контур_20439" data-name="Контур 20439" d="M3042.3,493.708l-1.742-1.149-.22-.621s1.233-.1,1.495-.063C3042.021,492.334,3041.945,492.624,3042.3,493.708Z" transform="translate(-3031.683 -457.301)" fill="#10758e" fill-rule="evenodd"/>
            <path id="Контур_20440" data-name="Контур 20440" d="M3033.735,448.492s-.558.393-1.184-1.155c-.354-.877-.649-2.208-.976-3.361-.484-1.706-.939-3.145-.939-3.145l-.253-2.32a1.112,1.112,0,0,1,.423-.011,25.549,25.549,0,0,1,1.121,3.8C3032.663,444.858,3033.6,447.782,3033.735,448.492Z" transform="translate(-3024.614 -419.438)" fill="#1f2024" fill-rule="evenodd"/>
            <g transform="matrix(1, 0, 0, 1, -79.82, -49.66)" filter="url(#Контур_20441)">
              <path id="Контур_20441-2" data-name="Контур 20441" d="M3132.751,403.332c-.342-.586-.485-.9-4.326-1.046-1.108.068-3.544-2.284-3.337-3.635a22.3,22.3,0,0,1,2.417-2.344c.143.019,5.205-1.189,5.627.42C3133.589,398.472,3134.812,406.871,3132.751,403.332Z" transform="translate(-3011.96 -339.56)" fill="#1f2024" fill-rule="evenodd"/>
            </g>
            <path id="Контур_20442" data-name="Контур 20442" d="M3142.2,494.823l.386,1.179,1.255,0-1.016.726.39,1.177-1.014-.73-1.014.73.39-1.177-1.017-.726,1.255,0Z" transform="translate(-3102.766 -459.399)" fill="#fff" fill-rule="evenodd"/>
            <path id="Контур_20443" data-name="Контур 20443" d="M3171.045,458.7l.386,1.179,1.255,0-1.017.726.39,1.177-1.014-.73-1.014.73.39-1.177-1.017-.726,1.255,0Z" transform="translate(-3123.224 -433.774)" fill="#fff" fill-rule="evenodd"/>
            <path id="Контур_20444" data-name="Контур 20444" d="M3171.045,490.776l.386,1.179,1.255,0-1.017.726.39,1.177-1.014-.73-1.014.73.39-1.177-1.017-.726,1.255,0Z" transform="translate(-3123.224 -456.529)" fill="#fff" fill-rule="evenodd"/>
            <path id="Контур_20445" data-name="Контур 20445" d="M3149.653,473.062l.386,1.179,1.255,0-1.017.726.39,1.177-1.014-.73-1.014.73.39-1.177-1.017-.726,1.255,0Z" transform="translate(-3108.05 -443.964)" fill="#fff" fill-rule="evenodd"/>
            <path id="Контур_20446" data-name="Контур 20446" d="M3136.269,528.153l.385,1.179,1.255,0-1.016.726.39,1.177-1.014-.73-1.014.73.39-1.177-1.017-.726,1.255,0Z" transform="translate(-3098.556 -483.041)" fill="#fff" fill-rule="evenodd"/>
            <path id="Контур_20447" data-name="Контур 20447" d="M3130.624,560.232l.385,1.179,1.255,0-1.017.726.39,1.177-1.014-.73-1.014.73.39-1.177-1.017-.726,1.255,0Z" transform="translate(-3094.553 -505.795)" fill="#fff" fill-rule="evenodd"/>
            <path id="Контур_20448" data-name="Контур 20448" d="M3119.335,591.2l.386,1.179,1.255,0-1.017.726.39,1.177-1.014-.73-1.014.73.39-1.177-1.017-.726,1.255,0Z" transform="translate(-3086.545 -527.765)" fill="#fff" fill-rule="evenodd"/>
            <path id="Контур_20449" data-name="Контур 20449" d="M3113.69,618.96l.385,1.179,1.255,0-1.017.726.39,1.177-1.014-.73-1.014.73.39-1.177-1.017-.726,1.255,0Z" transform="translate(-3082.541 -547.452)" fill="#fff" fill-rule="evenodd"/>
            <path id="Контур_20450" data-name="Контур 20450" d="M3097.377,638.069l.385,1.179,1.256,0-1.017.726.39,1.177-1.014-.73-1.014.73.39-1.177-1.017-.726,1.255,0Z" transform="translate(-3070.969 -561.007)" fill="#fff" fill-rule="evenodd"/>
            <path id="Контур_20451" data-name="Контур 20451" d="M3108.332,658.256l.385,1.179,1.255,0-1.017.726.39,1.177-1.014-.73-1.014.73.39-1.177-1.017-.726,1.255,0Z" transform="translate(-3078.74 -575.326)" fill="#fff" fill-rule="evenodd"/>
            <path id="Контур_20452" data-name="Контур 20452" d="M3203.437,505.418l.386,1.179,1.255,0-1.017.726.39,1.177-1.014-.73-1.014.73.39-1.177-1.017-.726,1.255,0Z" transform="translate(-3146.201 -466.914)" fill="#fff" fill-rule="evenodd"/>
            <path id="Контур_20453" data-name="Контур 20453" d="M3207.573,533.45l.386,1.179,1.255,0-1.017.726.39,1.177-1.014-.73-1.014.73.39-1.177-1.017-.726,1.255,0Z" transform="translate(-3149.135 -486.798)" fill="#fff" fill-rule="evenodd"/>
            <path id="Контур_20454" data-name="Контур 20454" d="M3213.218,565.529l.386,1.179,1.255,0-1.017.726.39,1.177-1.014-.73-1.014.73.39-1.177-1.017-.726,1.255,0Z" transform="translate(-3153.138 -509.553)" fill="#fff" fill-rule="evenodd"/>
            <path id="Контур_20455" data-name="Контур 20455" d="M3214.02,599.9l.386,1.179,1.255,0-1.017.726.39,1.177-1.014-.73-1.014.73.39-1.177-1.017-.726,1.255,0Z" transform="translate(-3153.707 -533.933)" fill="#fff" fill-rule="evenodd"/>
            <path id="Контур_20456" data-name="Контур 20456" d="M3221.859,634.271l.386,1.179,1.255,0-1.017.726.39,1.177-1.015-.73-1.014.73.39-1.177-1.017-.726,1.255,0Z" transform="translate(-3159.268 -558.313)" fill="#fff" fill-rule="evenodd"/>
            <path id="Контур_20457" data-name="Контур 20457" d="M3209.323,660.986l.385,1.179,1.255,0-1.017.726.39,1.177-1.014-.73-1.014.73.39-1.177-1.017-.726,1.255,0Z" transform="translate(-3150.375 -577.262)" fill="#fff" fill-rule="evenodd"/>
            <path id="Контур_20458" data-name="Контур 20458" d="M3227.5,671.58l.386,1.179,1.255,0-1.017.726.39,1.177-1.014-.73-1.014.73.39-1.177-1.017-.726,1.255,0Z" transform="translate(-3163.271 -584.777)" fill="#fff" fill-rule="evenodd"/>
            <path id="Контур_20459" data-name="Контур 20459" d="M3225.309,703.66l.385,1.179,1.255,0-1.017.726.39,1.177-1.014-.73-1.014.73.39-1.177-1.017-.726,1.255,0Z" transform="translate(-3161.715 -607.532)" fill="#fff" fill-rule="evenodd"/>
            <path id="Контур_20460" data-name="Контур 20460" d="M3213.218,684.238l.386,1.179,1.255,0-1.017.726.39,1.177-1.014-.73-1.014.73.39-1.177-1.017-.726,1.255,0Z" transform="translate(-3153.138 -593.756)" fill="#fff" fill-rule="evenodd"/>
            <path id="Контур_20461" data-name="Контур 20461" d="M3186.409,678.941l.385,1.179,1.255,0-1.017.726.39,1.177-1.014-.73-1.014.73.39-1.177-1.017-.726,1.255,0Z" transform="translate(-3134.123 -589.998)" fill="#fff" fill-rule="evenodd"/>
            <path id="Контур_20462" data-name="Контур 20462" d="M3166.592,676.466l.386,1.179,1.255,0-1.017.726.39,1.177-1.014-.73-1.014.73.39-1.177-1.017-.726,1.255,0Z" transform="translate(-3120.065 -588.242)" fill="#fff" fill-rule="evenodd"/>
            <path id="Контур_20463" data-name="Контур 20463" d="M3143.69,684.6l.386,1.179,1.255,0-1.017.726.39,1.177-1.014-.73-1.014.73.39-1.177-1.017-.726,1.255,0Z" transform="translate(-3103.821 -594.01)" fill="#fff" fill-rule="evenodd"/>
            <path id="Контур_20464" data-name="Контур 20464" d="M3119.335,681.764l.386,1.179,1.255,0-1.017.726.39,1.177-1.014-.73-1.014.73.39-1.177-1.017-.726,1.255,0Z" transform="translate(-3086.545 -592)" fill="#fff" fill-rule="evenodd"/>
            <path id="Контур_20465" data-name="Контур 20465" d="M3094.979,678.931l.385,1.179,1.255,0-1.017.726.39,1.177-1.014-.73-1.014.73.39-1.177-1.017-.726,1.255,0Z" transform="translate(-3069.269 -589.991)" fill="#fff" fill-rule="evenodd"/>
            <path id="Контур_20466" data-name="Контур 20466" d="M3102.4,699.605l.386,1.179,1.255,0-1.017.726.39,1.177-1.014-.73-1.014.73.39-1.177-1.017-.726,1.255,0Z" transform="translate(-3074.535 -604.655)" fill="#fff" fill-rule="evenodd"/>
            <path id="Контур_20467" data-name="Контур 20467" d="M3128.793,704.9l.385,1.179,1.255,0-1.017.726.39,1.177-1.014-.73-1.014.73.39-1.177-1.017-.726,1.255,0Z" transform="translate(-3093.253 -608.413)" fill="#fff" fill-rule="evenodd"/>
            <path id="Контур_20468" data-name="Контур 20468" d="M3085.425,707.608l.386,1.179,1.255,0-1.017.726.39,1.177-1.014-.73-1.014.73.39-1.177-1.017-.726,1.255,0Z" transform="translate(-3062.492 -610.332)" fill="#fff" fill-rule="evenodd"/>
            <path id="Контур_20469" data-name="Контур 20469" d="M3155.183,706.571l.386,1.179,1.255,0-1.017.726.39,1.177-1.014-.73-1.014.73.39-1.177-1.017-.726,1.255,0Z" transform="translate(-3111.973 -609.596)" fill="#fff" fill-rule="evenodd"/>
            <path id="Контур_20470" data-name="Контур 20470" d="M3178.867,700.842l.385,1.179,1.255,0-1.017.726.39,1.177-1.014-.73-1.014.73.39-1.177-1.017-.726,1.255,0Z" transform="translate(-3128.772 -605.533)" fill="#fff" fill-rule="evenodd"/>
            <path id="Контур_20471" data-name="Контур 20471" d="M3198.033,708.958l.385,1.179,1.255,0-1.017.726.39,1.177-1.014-.73-1.014.73.39-1.177-1.017-.726,1.255,0Z" transform="translate(-3142.367 -611.289)" fill="#fff" fill-rule="evenodd"/>
            <g transform="matrix(1, 0, 0, 1, -79.82, -49.66)" filter="url(#Контур_20472)">
              <path id="Контур_20472-2" data-name="Контур 20472" d="M3131.628,501.371c1.383,0,6.148,4.559,8,13.5,1.969,9.487-.417,26.479,1.549,34.432-7.456-1.25-24.446,1.549-31.16,2.238.538-3.008,2.28-5.586,2.927-8.264,2.615-10.826,4.71-19.255,6.31-24.983A28.361,28.361,0,0,1,3131.628,501.371Z" transform="translate(-3001.28 -414.38)" fill="#ef4864" fill-rule="evenodd"/>
            </g>
            <path id="Контур_20473" data-name="Контур 20473" d="M3162.255,671.058l1.474-.3-.865-3.422s-1.066.124-1.328.16C3161.133,667.549,3162.093,670.438,3162.255,671.058Z" transform="translate(-3117.594 -581.791)" fill="#10758e" fill-rule="evenodd"/>
            <path id="Контур_20474" data-name="Контур 20474" d="M3171.275,686.7s-3.091-4.078-5.047-7.384a15.3,15.3,0,0,1-1.591-3.907s-1.566.031-1.51.289C3163.942,679.419,3167.5,685.137,3171.275,686.7Z" transform="translate(-3118.771 -587.494)" fill="#00a7cf" fill-rule="evenodd"/>
            <path id="Контур_20475" data-name="Контур 20475" d="M3179.208,507.515l.386,1.179,1.255,0-1.017.726.39,1.177-1.014-.73-1.014.73.39-1.177-1.017-.726,1.255,0Z" transform="translate(-3129.015 -468.402)" fill="#fff" fill-rule="evenodd"/>
            <path id="Контур_20476" data-name="Контур 20476" d="M3163.436,530l.386,1.179,1.255,0-1.017.726.39,1.177-1.014-.73-1.014.73.39-1.177-1.017-.726,1.255,0Z" transform="translate(-3117.826 -484.348)" fill="#fff" fill-rule="evenodd"/>
            <path id="Контур_20477" data-name="Контур 20477" d="M3188.7,533.45l.385,1.179,1.255,0-1.017.726.39,1.177-1.014-.73-1.014.73.39-1.177-1.017-.726,1.255,0Z" transform="translate(-3135.745 -486.798)" fill="#fff" fill-rule="evenodd"/>
            <path id="Контур_20478" data-name="Контур 20478" d="M3171.921,560.232l.385,1.179,1.255,0-1.017.726.39,1.177-1.014-.73-1.014.73.39-1.177-1.017-.726,1.255,0Z" transform="translate(-3123.846 -505.795)" fill="#fff" fill-rule="evenodd"/>
            <path id="Контур_20479" data-name="Контур 20479" d="M3147.535,567.27l.386,1.179,1.255,0-1.017.726.39,1.177-1.014-.73-1.014.73.39-1.177-1.017-.726,1.255,0Z" transform="translate(-3106.548 -510.787)" fill="#fff" fill-rule="evenodd"/>
            <path id="Контур_20480" data-name="Контур 20480" d="M3113.69,522.855l.385,1.179,1.255,0-1.017.726.39,1.177-1.014-.73-1.014.73.39-1.177-1.017-.726,1.255,0Z" transform="translate(-3082.541 -479.283)" fill="#fff" fill-rule="evenodd"/>
            <path id="Контур_20481" data-name="Контур 20481" d="M3108.046,551.758l.385,1.179,1.255,0-1.017.726.39,1.177-1.014-.73-1.014.73.39-1.177-1.017-.726,1.255,0Z" transform="translate(-3078.538 -499.784)" fill="#fff" fill-rule="evenodd"/>
            <path id="Контур_20482" data-name="Контур 20482" d="M3069.187,591.2l.385,1.179,1.255,0-1.017.726.39,1.177-1.014-.73-1.014.73.39-1.177-1.017-.726,1.255,0Z" transform="translate(-3050.974 -527.765)" fill="#fff" fill-rule="evenodd"/>
            <path id="Контур_20483" data-name="Контур 20483" d="M3094.261,585.908l.385,1.179,1.255,0-1.017.726.39,1.177-1.014-.73-1.014.73.39-1.177-1.017-.726,1.255,0Z" transform="translate(-3068.76 -524.007)" fill="#fff" fill-rule="evenodd"/>
            <path id="Контур_20484" data-name="Контур 20484" d="M3060.379,565.53l.385,1.179,1.255,0-1.017.726.39,1.177-1.014-.73-1.014.73.39-1.177-1.017-.726,1.255,0Z" transform="translate(-3044.726 -509.553)" fill="#fff" fill-rule="evenodd"/>
            <path id="Контур_20485" data-name="Контур 20485" d="M3063.542,541.164l.385,1.179,1.255,0-1.017.726.39,1.177-1.014-.73-1.014.73.39-1.177-1.017-.726,1.255,0Z" transform="translate(-3046.97 -492.27)" fill="#fff" fill-rule="evenodd"/>
            <path id="Контур_20486" data-name="Контур 20486" d="M3057.9,518.11l.385,1.179,1.255,0-1.017.726.39,1.177-1.014-.73-1.014.73.39-1.177-1.017-.726,1.255,0Z" transform="translate(-3042.966 -475.917)" fill="#fff" fill-rule="evenodd"/>
            <path id="Контур_20487" data-name="Контур 20487" d="M3044.112,554.935l.385,1.179,1.255,0-1.017.726.39,1.177-1.014-.73-1.014.73.39-1.177-1.017-.726,1.255,0Z" transform="translate(-3033.187 -502.038)" fill="#fff" fill-rule="evenodd"/>
            <path id="Контур_20488" data-name="Контур 20488" d="M3043.754,533.479l.385,1.179,1.255,0-1.017.726.39,1.177-1.014-.73-1.014.73.39-1.177-1.017-.726,1.255,0Z" transform="translate(-3032.934 -486.819)" fill="#fff" fill-rule="evenodd"/>
            <path id="Контур_20489" data-name="Контур 20489" d="M3032.116,511.043l.385,1.179,1.255,0-1.017.726.39,1.177-1.014-.73-1.014.73.39-1.177-1.017-.726,1.255,0Z" transform="translate(-3024.679 -470.905)" fill="#fff" fill-rule="evenodd"/>
            <path id="Контур_20490" data-name="Контур 20490" d="M3018.641,496.073l.385,1.179,1.255,0-1.017.726.39,1.177-1.014-.73-1.014.73.39-1.177L3017,497.25l1.255,0Z" transform="translate(-3015.121 -460.286)" fill="#fff" fill-rule="evenodd"/>
            <path id="Контур_20491" data-name="Контур 20491" d="M3020.737,535.866l.385,1.179,1.256,0-1.017.726.39,1.177-1.014-.73-1.014.73.39-1.177-1.017-.726,1.255,0Z" transform="translate(-3016.607 -488.512)" fill="#fff" fill-rule="evenodd"/>
            <path id="Контур_20492" data-name="Контур 20492" d="M3026.38,570.016l.385,1.179,1.255,0-1.017.726.39,1.177-1.014-.73-1.014.73.39-1.177-1.017-.726,1.255,0Z" transform="translate(-3020.611 -512.735)" fill="#fff" fill-rule="evenodd"/>
            <path id="Контур_20493" data-name="Контур 20493" d="M3044.112,587.211l.385,1.179,1.255,0-1.017.726.39,1.177-1.014-.73-1.014.73.39-1.177-1.017-.726,1.255,0Z" transform="translate(-3033.187 -524.932)" fill="#fff" fill-rule="evenodd"/>
            <path id="Контур_20494" data-name="Контур 20494" d="M3088.616,561.973l.385,1.179,1.255,0-1.017.726.39,1.177-1.014-.73-1.014.73.39-1.177-1.017-.726,1.255,0Z" transform="translate(-3064.755 -507.03)" fill="#fff" fill-rule="evenodd"/>
            <path id="Контур_20495" data-name="Контур 20495" d="M3086.089,538.038l.385,1.179,1.255,0-1.016.726.39,1.177-1.014-.73-1.014.73.39-1.177-1.017-.726,1.255,0Z" transform="translate(-3062.963 -490.052)" fill="#fff" fill-rule="evenodd"/>
            <path id="Контур_20496" data-name="Контур 20496" d="M3071.668,614.76l.385,1.179,1.256,0-1.017.726.39,1.177-1.014-.73-1.014.73.39-1.177-1.017-.726,1.255,0Z" transform="translate(-3052.734 -544.473)" fill="#fff" fill-rule="evenodd"/>
            <path id="Контур_20497" data-name="Контур 20497" d="M3192.148,580.61l.386,1.179,1.255,0-1.017.726.39,1.177-1.014-.73-1.014.73.39-1.177-1.017-.726,1.255,0Z" transform="translate(-3138.193 -520.25)" fill="#fff" fill-rule="evenodd"/>
            <path id="Контур_20498" data-name="Контур 20498" d="M3166.678,596.5l.385,1.179,1.255,0-1.017.726.39,1.177-1.014-.73-1.014.73.39-1.177-1.017-.726,1.255,0Z" transform="translate(-3120.126 -531.522)" fill="#fff" fill-rule="evenodd"/>
            <path id="Контур_20499" data-name="Контур 20499" d="M3141.207,612.394l.386,1.179,1.255,0-1.017.726.39,1.177-1.014-.73-1.014.73.39-1.177-1.017-.726,1.255,0Z" transform="translate(-3102.06 -542.795)" fill="#fff" fill-rule="evenodd"/>
            <path id="Контур_20500" data-name="Контур 20500" d="M3163.436,639.569l.386,1.179,1.255,0-1.017.726.39,1.177-1.014-.73-1.014.73.39-1.177-1.017-.726,1.255,0Z" transform="translate(-3117.826 -562.07)" fill="#fff" fill-rule="evenodd"/>
            <path id="Контур_20501" data-name="Контур 20501" d="M3196.142,647.763l.386,1.179,1.255,0-1.017.726.39,1.177-1.014-.73-1.014.73.39-1.177-1.017-.726,1.255,0Z" transform="translate(-3141.026 -567.883)" fill="#fff" fill-rule="evenodd"/>
            <path id="Контур_20502" data-name="Контур 20502" d="M3190.5,617.691l.386,1.179,1.255,0-1.017.726.39,1.177-1.014-.73-1.014.73.39-1.177-1.017-.726,1.255,0Z" transform="translate(-3137.022 -546.552)" fill="#fff" fill-rule="evenodd"/>
            <path id="Контур_20503" data-name="Контур 20503" d="M3124.979,650.163l.386,1.179,1.255,0-1.017.726.39,1.177-1.014-.73-1.014.73.39-1.177-1.017-.726,1.255,0Z" transform="translate(-3090.549 -569.585)" fill="#fff" fill-rule="evenodd"/>
          </g>
        </g>
      </g>
      <ellipse id="Эллипс_1347" data-name="Эллипс 1347" cx="1.219" cy="0.948" rx="1.219" ry="0.948" transform="translate(69.089 180.333)" fill="#ef4864"/>
      <ellipse id="Эллипс_1356" data-name="Эллипс 1356" cx="1.354" cy="1.219" rx="1.354" ry="1.219" transform="translate(176.344 173.561)" fill="#24272d"/>
      <ellipse id="Эллипс_1348" data-name="Эллипс 1348" cx="1.76" cy="1.896" rx="1.76" ry="1.896" transform="translate(66.11 174.374)" fill="#00a7cf"/>
      <path id="Контур_20552" data-name="Контур 20552" d="M1.576,0A1.576,1.576,0,1,1,0,1.576,1.576,1.576,0,0,1,1.576,0Z" transform="translate(178.484 167.628)" fill="#ef4864"/>
      <circle id="Эллипс_1349" data-name="Эллипс 1349" cx="1.625" cy="1.625" r="1.625" transform="translate(72.34 175.457)" fill="#d1e92a"/>
      <ellipse id="Эллипс_1355" data-name="Эллипс 1355" cx="1.896" cy="1.76" rx="1.896" ry="1.76" transform="translate(172.01 168.145)" fill="#d1e92a"/>
      <ellipse id="Эллипс_1350" data-name="Эллипс 1350" cx="1.76" cy="1.896" rx="1.76" ry="1.896" transform="translate(70.444 169.77)" fill="#24272d"/>
      <path id="Контур_20551" data-name="Контур 20551" d="M1.839,0A1.839,1.839,0,1,1,0,1.839,1.839,1.839,0,0,1,1.839,0Z" transform="translate(174.281 162.9)" fill="#00a7cf"/>
      <ellipse id="Эллипс_1351" data-name="Эллипс 1351" cx="1.76" cy="1.896" rx="1.76" ry="1.896" transform="translate(65.568 166.52)" fill="#ef4864"/>
      <ellipse id="Эллипс_1353" data-name="Эллипс 1353" cx="1.49" cy="1.625" rx="1.49" ry="1.625" transform="translate(179.052 159.748)" fill="#d1e92a"/>
      <circle id="Эллипс_1352" data-name="Эллипс 1352" cx="1.625" cy="1.625" r="1.625" transform="translate(75.048 167.061)" fill="#00a7cf"/>
      <circle id="Эллипс_1358" data-name="Эллипс 1358" cx="1.625" cy="1.625" r="1.625" transform="translate(169.573 160.29)" fill="#24272d"/>
    </g>
  </g>
</svg>
