<svg id="invoice" xmlns="http://www.w3.org/2000/svg" width="26.603" height="26.603" viewBox="0 0 26.603 26.603">
  <g id="Group_7639" data-name="Group 7639" transform="translate(0 0)">
    <g id="Group_7638" data-name="Group 7638">
      <path id="Path_20605" data-name="Path 20605" d="M164.78,312h-3.741a1.039,1.039,0,0,0,0,2.078h3.741a1.039,1.039,0,0,0,0-2.078Z" transform="translate(-151.687 -295.789)" fill="#24272d"/>
      <path id="Path_20606" data-name="Path 20606" d="M303.559,152h-.52a1.039,1.039,0,0,0,0,2.078h.52a1.039,1.039,0,1,0,0-2.078Z" transform="translate(-286.308 -144.102)" fill="#24272d"/>
      <path id="Path_20607" data-name="Path 20607" d="M164.78,152h-3.741a1.039,1.039,0,1,0,0,2.078h3.741a1.039,1.039,0,0,0,0-2.078Z" transform="translate(-151.687 -144.102)" fill="#24272d"/>
      <path id="Path_20608" data-name="Path 20608" d="M164.78,232h-3.741a1.039,1.039,0,0,0,0,2.078h3.741a1.039,1.039,0,0,0,0-2.078Z" transform="translate(-151.687 -219.945)" fill="#24272d"/>
      <path id="Path_20609" data-name="Path 20609" d="M303.559,312h-.52a1.039,1.039,0,0,0,0,2.078h.52a1.039,1.039,0,0,0,0-2.078Z" transform="translate(-286.308 -295.789)" fill="#24272d"/>
      <path id="Path_20610" data-name="Path 20610" d="M20.368,14.107a1.039,1.039,0,1,0,2.078,0V8h3.118A1.039,1.039,0,0,0,26.6,6.963V3.118A3.117,3.117,0,0,0,23.493,0H7.274A3.121,3.121,0,0,0,4.157,3.118v15.12A4.161,4.161,0,0,0,0,22.394v.052A4.161,4.161,0,0,0,4.157,26.6h18.29A4.161,4.161,0,0,0,26.6,22.446v-.052a4.161,4.161,0,0,0-4.157-4.157H21.407a1.039,1.039,0,0,0-1.039,1.039v5.248H6.235V3.118A1.04,1.04,0,0,1,7.274,2.079H20.547a3.1,3.1,0,0,0-.179,1.039ZM22.446,3.118a1.039,1.039,0,1,1,2.078,0V5.923H22.446ZM4.157,24.525a2.081,2.081,0,0,1-2.078-2.078v-.052a2.081,2.081,0,0,1,2.078-2.078Zm18.29-4.209a2.081,2.081,0,0,1,2.078,2.078v.052a2.081,2.081,0,0,1-2.078,2.078Z" transform="translate(0 0)" fill="#24272d"/>
      <path id="Path_20611" data-name="Path 20611" d="M303.559,232h-.52a1.039,1.039,0,0,0,0,2.078h.52a1.039,1.039,0,0,0,0-2.078Z" transform="translate(-286.308 -219.945)" fill="#24272d"/>
    </g>
  </g>
</svg>
