<svg id="Group_7647" data-name="Group 7647" xmlns="http://www.w3.org/2000/svg" width="20.208" height="20.208" viewBox="0 0 20.208 20.208">
  <path id="Path_20617" data-name="Path 20617" d="M266.2,11.515l.892.987a2.366,2.366,0,0,0,2.1,3.457.789.789,0,1,0,0-1.579.789.789,0,1,1,.789-.789.789.789,0,1,0,1.579,0,2.361,2.361,0,0,0-.724-1.7l2.21-6.17a2.379,2.379,0,0,0,.29.018.789.789,0,1,0,0-1.579.789.789,0,1,1,.789-.789.789.789,0,1,0,1.579,0A2.368,2.368,0,1,0,271.63,5L269.4,11.231c-.067-.006-.134-.009-.2-.009a2.354,2.354,0,0,0-.95.2l-.872-.965a.789.789,0,0,0-1.172,1.058Z" transform="translate(-255.501 -0.961)" fill="#24272d"/>
  <path id="Path_20618" data-name="Path 20618" d="M82.368,129.433a.789.789,0,0,0,0-1.579.789.789,0,1,1,.789-.789.789.789,0,1,0,1.579,0,2.364,2.364,0,0,0-.889-1.848l1.517-3.487c.053,0,.107.006.161.006a.789.789,0,1,0,0-1.579.789.789,0,1,1,.789-.789.789.789,0,0,0,1.579,0,2.368,2.368,0,1,0-3.978,1.735L82.352,124.7a2.368,2.368,0,0,0,.017,4.736Z" transform="translate(-76.843 -112.382)" fill="#24272d"/>
  <path id="Path_20619" data-name="Path 20619" d="M19.418,18.629H1.579V.789A.789.789,0,1,0,0,.789V19.418a.789.789,0,0,0,.789.789H19.418a.789.789,0,0,0,0-1.579Z" fill="#24272d"/>
</svg>
