<svg xmlns="http://www.w3.org/2000/svg" viewBox="0 0 255 60.96">
  <g id="Сгруппировать_21003" data-name="Сгруппировать 21003" transform="translate(-138 -2527)">
    <g id="Сгруппировать_21001" data-name="Сгруппировать 21001" transform="translate(210.951 2538.443)">
      <path id="Контур_20388" data-name="Контур 20388" d="M5062.832,1276.567a8.69,8.69,0,0,0,1.891,6.114c3.026,3.511,7.528,3.969,11.107,6.319.889.583,1.666,1.635,1.023,2.7-1.207,2-6.064.569-7.715-.2a12.932,12.932,0,0,1-2.979-1.936c-.655.59-4.167,4.2-5.286,5.339,3.647,2.924,7.128,4.585,11.912,4.78a14.568,14.568,0,0,0,9.963-3.3,8.6,8.6,0,0,0,1.4-11.049c-3.032-4.344-11.561-5.543-12.836-7.843-.7-1.25.512-2.846,2.635-2.9,2.476.267,3.689.678,6.711,2.438.687-.689,3.715-3.738,4.684-4.724a14.206,14.206,0,0,0-9.86-4.486C5069.826,1267.647,5063.524,1270.346,5062.832,1276.567Z" transform="translate(-5060.872 -1262.52)" fill="#24272d" fill-rule="evenodd"/>
      <path id="Контур_20389" data-name="Контур 20389" d="M5196.878,1299.707h8.209v-18.3a5.276,5.276,0,0,1,5.26-5.261h.833v-8.29h-1.952a12.387,12.387,0,0,0-12.35,12.35Z" transform="translate(-5101.195 -1262.535)" fill="#24272d" fill-rule="evenodd"/>
      <path id="Контур_20390" data-name="Контур 20390" d="M5279.484,1260.36h8.246v5.224h6.774v8.815h-6.774v9.568a5.3,5.3,0,0,0,5.285,5.286h.837v8.327h-1.962a12.442,12.442,0,0,1-12.405-12.406V1274.4h-3.962v-8.815h3.962Z" transform="translate(-5124.512 -1260.313)" fill="#24272d" fill-rule="evenodd"/>
      <path id="Контур_20391" data-name="Контур 20391" d="M5247.671,1299.681h8.011v-13.744c-.043-.671,0-1.354,0-2.047a16.1,16.1,0,1,0-8.011,13.927v1.865Zm-8.1-8.212a7.58,7.58,0,1,1,7.58-7.579A7.58,7.58,0,0,1,5239.575,1291.468Z" transform="translate(-5109.078 -1262.513)" fill="#24272d" fill-rule="evenodd"/>
      <path id="Контур_20392" data-name="Контур 20392" d="M5118.306,1299.707a15.926,15.926,0,1,1,15.924-15.926,15.926,15.926,0,0,1-15.924,15.926Zm0-8.441a7.485,7.485,0,1,0-7.485-7.485A7.485,7.485,0,0,0,5118.306,1291.266Z" transform="translate(-5073.178 -1262.535)" fill="#24272d" fill-rule="evenodd"/>
      <path id="Контур_20393" data-name="Контур 20393" d="M5171.307,1297.465h8.478v-7.646a12.853,12.853,0,0,0-6.089-10.9,5.278,5.278,0,0,1,5.258-5.055h.831v-8.289h-1.951a12.39,12.39,0,0,0-12.314,11.415h-2.947v-16.672l-8.5-.021v31.344h8.5v-6.365h3.333a5.417,5.417,0,0,1,5.4,5.4Z" transform="translate(-5088.504 -1260.293)" fill="#24272d" fill-rule="evenodd"/>
      <ellipse id="Эллипс_1325" data-name="Эллипс 1325" cx="4.137" cy="4.137" rx="4.137" ry="4.137" transform="translate(173.775 28.957)" fill="#24272d"/>
    </g>
    <g id="Сгруппировать_21002" data-name="Сгруппировать 21002" transform="translate(138 2527)">
      <rect id="Прямоугольник_6623" data-name="Прямоугольник 6623" width="60.957" height="60.957" rx="10" transform="translate(0 0)" fill="#00a7cf"/>
      <g id="Сгруппировать_13208" data-name="Сгруппировать 13208" transform="translate(12.856 12.492)">
        <g id="Icons" transform="translate(0 0)">
          <path id="Контур_20432" data-name="Контур 20432" d="M18.389,39.073a5.96,5.96,0,0,1-5.939-5.431,5.946,5.946,0,0,1-4.33-9.378,4.938,4.938,0,0,1,1.263-9.378,4.837,4.837,0,0,1-.446-2.047,4.958,4.958,0,0,1,3.539-4.748,4.749,4.749,0,0,1-.137-1.125A4.975,4.975,0,0,1,17.434,2a5.085,5.085,0,0,1,4.827,5.138V35.964a2.966,2.966,0,0,1-2.1,2.844,5.967,5.967,0,0,1-1.775.265ZM17.305,3.057A3.887,3.887,0,0,0,13.64,8.3a.53.53,0,0,1-.407.7A3.9,3.9,0,0,0,9.994,12.84a3.734,3.734,0,0,0,.694,2.193.53.53,0,0,1-.43.838A3.953,3.953,0,0,0,6.272,19.78a3.9,3.9,0,0,0,2.86,3.731.53.53,0,0,1,.25.865A4.956,4.956,0,0,0,8.07,27.7a4.9,4.9,0,0,0,4.886,4.908.53.53,0,0,1,.53.53A4.909,4.909,0,0,0,19.846,37.8,1.911,1.911,0,0,0,21.2,35.964V7.135a4.017,4.017,0,0,0-3.794-4.078Z" transform="translate(-5.213 -1.995)" fill="#fff"/>
        </g>
        <g id="Icons-2" data-name="Icons" transform="translate(18.009 0)">
          <path id="Контур_20432-2" data-name="Контур 20432" d="M9.086,39.073a5.96,5.96,0,0,0,5.939-5.431,5.946,5.946,0,0,0,4.33-9.378,4.938,4.938,0,0,0-1.263-9.378,4.837,4.837,0,0,0,.446-2.047A4.958,4.958,0,0,0,15,8.091a4.749,4.749,0,0,0,.137-1.125A4.975,4.975,0,0,0,10.04,2,5.085,5.085,0,0,0,5.214,7.135V35.964a2.966,2.966,0,0,0,2.1,2.844,5.967,5.967,0,0,0,1.775.265ZM10.17,3.057A3.887,3.887,0,0,1,13.834,8.3a.53.53,0,0,0,.407.7A3.9,3.9,0,0,1,17.48,12.84a3.734,3.734,0,0,1-.694,2.193.53.53,0,0,0,.43.838A3.953,3.953,0,0,1,21.2,19.78a3.9,3.9,0,0,1-2.86,3.731.53.53,0,0,0-.25.865A4.956,4.956,0,0,1,19.4,27.7a4.9,4.9,0,0,1-4.886,4.908.53.53,0,0,0-.53.53A4.909,4.909,0,0,1,7.628,37.8a1.911,1.911,0,0,1-1.355-1.832V7.135a4.017,4.017,0,0,1,3.794-4.078Z" transform="translate(-5.213 -1.995)" fill="#fff"/>
        </g>
        <ellipse id="Эллипс_1327" data-name="Эллипс 1327" cx="2.957" cy="2.957" rx="2.957" ry="2.957" transform="translate(9.158 2.069)" fill="#fff"/>
        <ellipse id="Эллипс_1339" data-name="Эллипс 1339" cx="2.947" cy="2.947" rx="2.947" ry="2.947" transform="translate(19.995 2.082)" fill="#fff"/>
        <ellipse id="Эллипс_1328" data-name="Эллипс 1328" cx="3.594" cy="3.594" rx="3.594" ry="3.594" transform="translate(5.585 7.654)" fill="#fff"/>
        <ellipse id="Эллипс_1337" data-name="Эллипс 1337" cx="3.602" cy="3.602" rx="3.602" ry="3.602" transform="translate(22.287 7.649)" fill="#fff"/>
        <ellipse id="Эллипс_1329" data-name="Эллипс 1329" cx="3.265" cy="3.286" rx="3.265" ry="3.286" transform="translate(1.971 14.512)" fill="#fff"/>
        <ellipse id="Эллипс_1336" data-name="Эллипс 1336" cx="3.274" cy="3.274" rx="3.274" ry="3.274" transform="translate(26.544 14.525)" fill="#fff"/>
        <ellipse id="Эллипс_1330" data-name="Эллипс 1330" cx="3.758" cy="3.758" rx="3.758" ry="3.758" transform="translate(3.614 22.069)" fill="#fff"/>
        <ellipse id="Эллипс_1340" data-name="Эллипс 1340" cx="3.766" cy="3.766" rx="3.766" ry="3.766" transform="translate(23.924 22.057)" fill="#fff"/>
        <ellipse id="Эллипс_1331" data-name="Эллипс 1331" cx="3.121" cy="3.121" rx="3.121" ry="3.121" transform="translate(9.487 28.927)" fill="#fff"/>
        <ellipse id="Эллипс_1344" data-name="Эллипс 1344" cx="3.111" cy="3.111" rx="3.111" ry="3.111" transform="translate(19.34 28.933)" fill="#fff"/>
        <ellipse id="Эллипс_1332" data-name="Эллипс 1332" cx="3.45" cy="3.45" rx="3.45" ry="3.45" transform="translate(8.83 15.827)" fill="#fff"/>
        <ellipse id="Эллипс_1338" data-name="Эллипс 1338" cx="3.438" cy="3.438" rx="3.438" ry="3.438" transform="translate(19.34 15.834)" fill="#fff"/>
        <ellipse id="Эллипс_1333" data-name="Эллипс 1333" cx="1.643" cy="1.622" rx="1.643" ry="1.622" transform="translate(12.444 12.254)" fill="#fff"/>
        <ellipse id="Эллипс_1342" data-name="Эллипс 1342" cx="1.637" cy="1.637" rx="1.637" ry="1.637" transform="translate(19.34 12.233)" fill="#fff"/>
        <ellipse id="Эллипс_1335" data-name="Эллипс 1335" cx="2.136" cy="2.115" rx="2.136" ry="2.115" transform="translate(11.458 24.04)" fill="#fff"/>
        <ellipse id="Эллипс_1341" data-name="Эллипс 1341" cx="2.128" cy="2.128" rx="2.128" ry="2.128" transform="translate(19.34 24.021)" fill="#fff"/>
        <ellipse id="Эллипс_1334" data-name="Эллипс 1334" cx="1.314" cy="1.314" rx="1.314" ry="1.314" transform="translate(12.772 7.982)" fill="#fff"/>
        <ellipse id="Эллипс_1343" data-name="Эллипс 1343" cx="1.31" cy="1.31" rx="1.31" ry="1.31" transform="translate(19.668 7.976)" fill="#fff"/>
      </g>
    </g>
  </g>
</svg>