<svg xmlns="http://www.w3.org/2000/svg" width="18.222" height="22" viewBox="0 0 18.222 22">
  <g id="copy" transform="translate(-43.968)">
    <g id="Сгруппировать_8939" data-name="Сгруппировать 8939" transform="translate(50.887 4.641)">
      <g id="Сгруппировать_8938" data-name="Сгруппировать 8938">
        <path id="Контур_21503" data-name="Контур 21503" d="M211.949,108.016h-6.1a.86.86,0,0,0,0,1.719h6.1a.86.86,0,0,0,0-1.719Z" transform="translate(-204.992 -108.016)" fill="#24272d"/>
      </g>
    </g>
    <g id="Сгруппировать_8941" data-name="Сгруппировать 8941" transform="translate(50.887 8.079)">
      <g id="Сгруппировать_8940" data-name="Сгруппировать 8940">
        <path id="Контур_21504" data-name="Контур 21504" d="M211.949,188.027h-6.1a.86.86,0,0,0,0,1.719h6.1a.86.86,0,0,0,0-1.719Z" transform="translate(-204.992 -188.027)" fill="#24272d"/>
      </g>
    </g>
    <g id="Сгруппировать_8943" data-name="Сгруппировать 8943" transform="translate(50.887 11.517)">
      <g id="Сгруппировать_8942" data-name="Сгруппировать 8942">
        <path id="Контур_21505" data-name="Контур 21505" d="M208.473,268.039h-2.621a.859.859,0,1,0,0,1.719h2.621a.859.859,0,0,0,0-1.719Z" transform="translate(-204.992 -268.039)" fill="#24272d"/>
      </g>
    </g>
    <g id="Сгруппировать_8945" data-name="Сгруппировать 8945" transform="translate(43.968)">
      <g id="Сгруппировать_8944" data-name="Сгруппировать 8944" transform="translate(0)">
        <path id="Контур_21506" data-name="Контур 21506" d="M61.33,11.689a.859.859,0,0,0,.86-.86V3.438A3.442,3.442,0,0,0,58.751,0H50.844a3.442,3.442,0,0,0-3.438,3.435,3.442,3.442,0,0,0-3.438,3.438V18.562A3.442,3.442,0,0,0,47.406,22h8.337a3.442,3.442,0,0,0,3.438-3.438v-.026a3.443,3.443,0,0,0,3.008-3.411.86.86,0,1,0-1.719,0,1.721,1.721,0,0,1-1.719,1.719l-7.907,0h0a1.719,1.719,0,0,1-1.719-1.719V3.438a1.721,1.721,0,0,1,1.719-1.719h7.907A1.721,1.721,0,0,1,60.47,3.438V10.83A.859.859,0,0,0,61.33,11.689ZM50.844,18.564h0l6.617,0a1.721,1.721,0,0,1-1.719,1.718H47.406a1.721,1.721,0,0,1-1.719-1.719V6.873a1.721,1.721,0,0,1,1.719-1.719v9.973a3.438,3.438,0,0,0,3.438,3.438Z" transform="translate(-43.968)" fill="#24272d"/>
      </g>
    </g>
  </g>
</svg>
